<?xml version="1.0" encoding="UTF-8" standalone="no"?>
<!DOCTYPE svg PUBLIC "-//W3C//DTD SVG 1.1//EN" "http://www.w3.org/Graphics/SVG/1.1/DTD/svg11.dtd">
<svg width="100%" height="100%" viewBox="0 0 1755 470" version="1.1" xmlns="http://www.w3.org/2000/svg" xmlns:xlink="http://www.w3.org/1999/xlink" xml:space="preserve" xmlns:serif="http://www.serif.com/" style="fill-rule:evenodd;clip-rule:evenodd;stroke-linejoin:round;stroke-miterlimit:2;">
    <g id="A1" transform="matrix(0.914062,0,0,0.435185,0,0)">
        <rect x="0" y="0" width="1920" height="1080" style="fill:none;"/>
        <g transform="matrix(0.95667,0,0,2.00939,1673.34,566.318)">
            <path d="M0,-11.879C-8.251,-9.758 -17.062,-7.849 -19.425,-22.144C-22.527,-18.685 -24.058,-15.792 -26.433,-14.642C-29.261,-13.272 -32.813,-13.398 -36.052,-12.875C-35.572,-16.544 -36.4,-21.884 -34.323,-23.509C-30.712,-26.333 -25.35,-27.94 -20.644,-28.13C-10.332,-28.548 -4.4,-31.905 -7.429,-44.289C1.785,-42.823 11.881,-44.506 14.396,-33.323C16.65,-23.308 10.339,-14.537 0,-11.879ZM-9.62,87.917C-1.42,76.547 10.235,73.887 22.419,72.385C28.404,71.646 34.626,71.651 40.307,69.907C47.813,67.603 47.808,60.45 41.933,58.469C31.971,55.109 24.31,42.007 11.087,49.833C10.268,50.318 7.72,47.883 5.976,46.806C7.232,44.956 8.106,42.337 9.852,41.47C11.643,40.58 14.386,40.999 16.537,41.542C33.59,45.841 42.792,37.038 40.947,19.065C39.053,0.602 37.256,-17.95 37.079,-36.48C36.977,-47.21 46.61,-48.855 55.364,-49.708C64.271,-50.576 73.171,-51.515 79.86,-52.197C75.158,-59.46 71.569,-66.407 66.66,-72.245C59.941,-80.234 52.171,-87.334 44.944,-94.904C38.562,-101.589 32.65,-108.772 25.85,-114.989C22.493,-118.058 17.122,-121.859 13.488,-121.143C2.354,-118.947 -7.73,-114.063 -18.176,-108.68C-55.133,-89.634 -42.348,-54.03 -49.976,-25.338C-50.843,-22.076 -50.5,-18.501 -50.846,-15.084C-50.908,-14.464 -51.592,-13.908 -52.003,-13.333C-67.126,-28.44 -74.436,-83.21 -62.211,-95.433C-65.353,-97.985 -68.411,-100.47 -72.118,-103.481C-66.551,-115.514 -62.241,-128.628 -54.824,-139.651C-48.96,-148.365 -39.284,-154.516 -31.286,-161.789C-29.927,-163.025 -27.807,-163.903 -27.198,-165.414C-17.194,-190.247 5.108,-192.364 26.375,-191.412C46.609,-190.506 67.771,-187.543 86.47,-180.227C117.473,-168.097 140.629,-145.69 153.029,-113.659C155.867,-106.329 158.951,-99.021 162.723,-92.141C172.328,-74.617 166.68,-57.32 161.647,-40.482C154.828,-17.67 151.393,4.897 154.926,28.854C156.538,39.788 160.588,53.893 144.397,60.268C142.678,60.945 142.288,65.641 141.739,68.559C134.231,108.435 110.564,136.965 76.983,157.354C38.888,180.485 2.412,160.821 -18.199,136.953C-23.183,131.183 -22.743,130.792 -16.401,123.745C-9.586,129.649 -3.397,136.671 4.271,141.175C11.56,145.457 20.396,147.106 29.17,150.126C30.562,145.813 31.456,143.039 32.334,140.316C45.293,139.875 52.994,134.022 56.283,122.232C59.726,109.895 52.828,102.444 40.038,104.295C33.422,105.253 26.202,110.334 18.517,100.541C27.111,96.991 34.753,93.835 42.396,90.68L42.706,87.855C34.204,87.217 25.702,86.06 17.203,86.083C8.26,86.107 -0.68,87.259 -9.62,87.917ZM63.025,-15.023C63.482,-9.029 63.362,-5.227 64.146,-1.62C65.269,3.55 67.413,8.502 68.482,13.679C71.162,26.654 72.884,39.865 76.301,52.631C77.364,56.602 82.307,61.654 86.056,62.199C89.858,62.751 96.348,59.407 98.234,55.918C104.859,43.668 110.606,30.845 115.515,17.798C118.929,8.724 114.815,4.956 104.585,4.613C98.297,4.402 91.367,4.215 85.959,1.532C78.499,-2.169 72.202,-8.215 63.025,-15.023ZM-1501.51,-100.944C-1493.91,-87.494 -1490.1,-69.904 -1490.1,-48.154L-1490.1,90.996C-1490.1,105.446 -1492.09,118.496 -1496.04,130.116C-1500,141.746 -1506.1,150.926 -1514.33,157.646C-1522.57,164.366 -1533.09,167.736 -1545.91,167.736C-1556.98,167.736 -1565.97,164.996 -1572.88,159.526C-1574.82,157.996 -1576.65,156.236 -1578.37,154.256C-1582.21,149.836 -1589.47,152.536 -1589.47,158.386C-1589.47,160.136 -1590.18,161.716 -1591.32,162.866C-1592.47,164.006 -1594.05,164.716 -1595.8,164.716L-1651.78,164.716C-1655.27,164.716 -1658.1,161.886 -1658.1,158.386L-1658.1,-160.804C-1658.1,-164.294 -1655.27,-167.134 -1651.78,-167.134L-1595.8,-167.134C-1592.3,-167.134 -1589.47,-164.294 -1589.47,-160.804L-1589.47,-110.654C-1589.47,-104.864 -1582.29,-102.074 -1578.45,-106.414C-1576.52,-108.604 -1574.44,-110.584 -1572.22,-112.354C-1564.86,-118.204 -1554.34,-121.124 -1540.64,-121.124C-1522.16,-121.124 -1509.12,-114.394 -1501.51,-100.944ZM-1558.55,78.546L-1558.55,-31.944C-1558.55,-42.374 -1559.3,-51.074 -1560.81,-58.054C-1562.32,-65.034 -1566.59,-68.524 -1573.63,-68.524C-1580.92,-68.524 -1585.39,-64.964 -1587.02,-57.864C-1588.65,-50.764 -1589.47,-42.124 -1589.47,-31.944L-1589.47,78.546C-1589.47,88.736 -1588.65,97.376 -1587.02,104.476C-1585.39,111.576 -1580.98,115.126 -1573.82,115.126C-1566.66,115.126 -1562.32,111.606 -1560.81,104.566C-1559.3,97.526 -1558.55,88.856 -1558.55,78.546ZM-1347.94,-114.564L-1347.94,-71.484C-1347.94,-68.014 -1350.63,-65.134 -1354.09,-64.904C-1358.19,-64.634 -1362.74,-64.114 -1367.74,-63.334C-1375.41,-62.134 -1382.13,-60.504 -1387.91,-58.434C-1393.7,-56.354 -1396.59,-54.064 -1396.59,-51.554L-1396.59,158.116C-1396.59,161.756 -1399.54,164.716 -1403.18,164.716L-1458.62,164.716C-1462.26,164.716 -1465.22,161.756 -1465.22,158.116L-1465.22,-111.504C-1465.22,-115.154 -1462.26,-118.104 -1458.62,-118.104L-1403.18,-118.104C-1399.54,-118.104 -1396.59,-115.154 -1396.59,-111.504C-1396.59,-107.514 -1393.32,-104.884 -1389.93,-104.884C-1388.26,-104.884 -1386.57,-105.524 -1385.22,-106.944C-1383.4,-108.884 -1381.41,-110.654 -1379.24,-112.264C-1372.6,-117.194 -1364.59,-120.144 -1355.21,-121.134C-1351.33,-121.544 -1347.94,-118.474 -1347.94,-114.564ZM-1264.22,-118.104L-1264.22,136.626C-1264.22,152.136 -1276.8,164.716 -1292.32,164.716L-1303.63,164.716C-1319.15,164.716 -1331.72,152.136 -1331.72,136.626L-1331.72,-118.104L-1264.22,-118.104ZM-1264.22,-163.544C-1264.22,-155.794 -1267.36,-148.764 -1272.45,-143.684C-1277.54,-138.594 -1284.56,-135.454 -1292.32,-135.454L-1303.63,-135.454C-1319.15,-135.454 -1331.72,-148.034 -1331.72,-163.544C-1331.72,-179.064 -1319.15,-191.644 -1303.63,-191.644L-1292.32,-191.644C-1276.8,-191.644 -1264.22,-179.064 -1264.22,-163.544ZM-1087.27,-89.444C-1080.3,-79.014 -1076.81,-66.134 -1076.81,-50.794L-1076.81,160.866C-1076.81,162.986 -1078.53,164.716 -1080.66,164.716L-1140.08,164.716C-1142.21,164.716 -1143.93,162.986 -1143.93,160.866L-1143.93,149.836C-1143.93,145.956 -1148.99,144.527 -1151.05,147.806C-1153.63,151.896 -1156.66,155.396 -1160.15,158.306C-1167.69,164.586 -1176.3,167.736 -1185.98,167.736C-1201.69,167.736 -1213.66,164.086 -1221.9,156.796C-1230.13,149.506 -1235.75,139.516 -1238.77,126.816C-1241.79,114.126 -1243.3,99.726 -1243.3,83.636C-1243.3,66.416 -1241.6,52.306 -1238.21,41.316C-1234.81,30.316 -1229,21.296 -1220.76,14.256C-1212.53,7.216 -1201.19,1.246 -1186.73,-3.654L-1147.48,-17.094C-1145.92,-17.624 -1144.87,-19.094 -1144.87,-20.744L-1144.87,-47.024C-1144.87,-62.234 -1149.84,-69.834 -1159.77,-69.834C-1168.82,-69.834 -1173.35,-63.674 -1173.35,-51.364L-1173.35,-38.244C-1173.35,-36.114 -1175.07,-34.394 -1177.2,-34.394L-1235.3,-34.394C-1237.41,-34.394 -1239.15,-36.094 -1239.15,-38.214L-1239.15,-43.634C-1239.15,-71.784 -1232.52,-91.744 -1219.26,-103.494C-1206,-115.244 -1184.97,-121.124 -1156.19,-121.124C-1141.1,-121.124 -1127.59,-118.454 -1115.65,-113.114C-1103.71,-107.764 -1094.25,-99.884 -1087.27,-89.444ZM-1145.06,93.256L-1145.06,20.386C-1145.06,17.556 -1148.04,15.656 -1150.59,16.916C-1157.28,20.226 -1162.66,24.146 -1166.75,28.676C-1171.9,34.396 -1174.48,42.786 -1174.48,53.846L-1174.48,90.236C-1174.48,106.956 -1169.45,115.316 -1159.39,115.316C-1153.86,115.316 -1150.09,112.986 -1148.08,108.336C-1146.07,103.686 -1145.06,98.656 -1145.06,93.256ZM-884.678,-53.434L-884.678,158.016C-884.678,161.716 -887.678,164.716 -891.378,164.716L-944.528,164.716C-948.238,164.716 -951.228,161.716 -951.228,158.016L-951.228,-46.454C-951.228,-51.984 -952.368,-57.114 -954.628,-61.824C-956.888,-66.534 -960.788,-68.894 -966.318,-68.894C-971.468,-68.894 -975.278,-67.104 -977.728,-63.524C-980.178,-59.944 -981.718,-55.474 -982.348,-50.134C-982.978,-44.794 -983.288,-39.484 -983.288,-34.204L-983.288,158.016C-983.288,161.716 -986.288,164.716 -989.988,164.716L-1044.09,164.716C-1047.79,164.716 -1050.79,161.716 -1050.79,158.016L-1050.79,-111.404C-1050.79,-115.104 -1047.79,-118.104 -1044.09,-118.104L-989.988,-118.104C-986.288,-118.104 -983.288,-115.104 -983.288,-111.404C-983.288,-107.314 -979.938,-104.684 -976.508,-104.684C-974.658,-104.684 -972.778,-105.454 -971.398,-107.174C-970.708,-108.044 -969.988,-108.894 -969.238,-109.714C-962.388,-117.324 -952.868,-121.124 -940.678,-121.124C-921.068,-121.124 -906.828,-115.094 -897.968,-103.024C-889.108,-90.954 -884.678,-74.424 -884.678,-53.434ZM-698.177,-167.134C-694.757,-167.134 -691.978,-164.354 -691.978,-160.924L-691.978,158.516C-691.978,161.935 -694.757,164.716 -698.177,164.716L-754.408,164.716C-757.837,164.716 -760.608,161.935 -760.608,158.516C-760.608,154.725 -763.668,152.326 -766.837,152.326C-768.568,152.326 -770.328,153.036 -771.648,154.626C-772.908,156.145 -774.218,157.565 -775.598,158.866C-781.818,164.776 -790.848,167.736 -802.658,167.736C-815.728,167.736 -826.098,165.346 -833.768,160.565C-841.438,155.786 -847.158,149.196 -850.928,140.766C-854.698,132.346 -857.178,122.475 -858.378,111.166C-859.568,99.855 -860.168,87.725 -860.168,74.776L-860.168,-48.154C-860.168,-69.904 -856.297,-87.494 -848.568,-100.944C-840.837,-114.394 -827.738,-121.124 -809.258,-121.124C-795.558,-121.124 -785.028,-118.204 -777.678,-112.354C-775.438,-110.574 -773.348,-108.584 -771.428,-106.384C-767.678,-102.104 -760.608,-104.844 -760.608,-110.524L-760.608,-160.924C-760.608,-164.354 -757.837,-167.134 -754.408,-167.134L-698.177,-167.134ZM-760.608,79.496L-760.608,-39.484C-760.608,-46.144 -761.587,-52.714 -763.538,-59.184C-765.488,-65.654 -769.788,-68.894 -776.448,-68.894C-783.738,-68.894 -788.328,-65.814 -790.218,-59.654C-792.098,-53.494 -793.038,-46.774 -793.038,-39.484L-793.038,79.496C-793.038,103.126 -787.638,114.935 -776.828,114.935C-770.418,114.935 -766.108,112.366 -763.908,107.206C-761.708,102.056 -760.608,92.815 -760.608,79.496ZM-548.689,-114.564L-548.689,-71.484C-548.689,-68.014 -551.369,-65.134 -554.838,-64.904C-558.928,-64.634 -563.479,-64.114 -568.478,-63.334C-576.149,-62.134 -582.878,-60.504 -588.659,-58.434C-594.439,-56.354 -597.329,-54.064 -597.329,-51.554L-597.329,158.116C-597.329,161.756 -600.289,164.716 -603.928,164.716L-659.359,164.716C-663.008,164.716 -665.959,161.756 -665.959,158.116L-665.959,-111.504C-665.959,-115.154 -663.008,-118.104 -659.359,-118.104L-603.928,-118.104C-600.289,-118.104 -597.329,-115.154 -597.329,-111.504C-597.329,-107.514 -594.059,-104.884 -590.668,-104.884C-589.007,-104.884 -587.309,-105.524 -585.968,-106.944C-584.149,-108.884 -582.149,-110.654 -579.979,-112.264C-573.348,-117.194 -565.337,-120.144 -555.959,-121.134C-552.069,-121.544 -548.689,-118.474 -548.689,-114.564ZM-450.828,29.526C-459.677,29.526 -466.858,36.706 -466.858,45.556L-466.858,84.206C-466.858,89.236 -466.538,94.166 -465.908,99.006C-465.288,103.846 -463.868,107.836 -461.668,110.976C-459.467,114.126 -455.917,115.696 -451.017,115.696C-443.978,115.696 -439.578,112.645 -437.818,106.546C-436.058,100.456 -435.177,92.506 -435.177,82.696L-435.177,71.576C-435.177,62.716 -427.998,55.546 -419.148,55.546L-384.078,55.546C-375.228,55.546 -368.058,62.716 -368.058,71.576C-368.058,82.126 -368.708,91.836 -370.017,100.676C-371.318,109.526 -373.278,117.516 -375.877,124.645C-381.097,138.916 -389.898,149.666 -402.278,156.886C-414.659,164.116 -431.538,167.736 -452.899,167.736C-473.017,167.736 -489.038,163.966 -500.978,156.416C-512.927,148.876 -521.467,138.006 -526.627,123.796C-531.778,109.596 -534.358,92.506 -534.358,72.516L-534.358,-41.184C-534.358,-67.444 -526.808,-87.344 -511.728,-100.854C-496.649,-114.364 -475.908,-121.124 -449.507,-121.124C-395.208,-121.124 -368.058,-94.474 -368.058,-41.184L-368.058,-20.624C-368.058,-6.534 -368.138,4.936 -368.297,13.786C-368.458,22.526 -375.578,29.526 -384.318,29.526L-450.828,29.526ZM-467.228,-20.064C-467.228,-11.214 -460.058,-4.034 -451.208,-4.034C-442.358,-4.034 -435.177,-11.214 -435.177,-20.064L-435.177,-42.124C-435.177,-52.304 -436.438,-59.624 -438.948,-64.084C-441.467,-68.544 -445.238,-70.784 -450.257,-70.784C-455.667,-70.784 -459.847,-68.644 -462.797,-64.374C-465.757,-60.094 -467.228,-52.684 -467.228,-42.124L-467.228,-20.064ZM-181.018,85.906C-181.018,112.555 -188.588,132.845 -203.739,146.805C-218.889,160.756 -239.649,167.736 -266.048,167.736C-321.859,167.736 -349.768,139.446 -349.768,82.885L-349.768,65.725C-349.768,62.815 -347.399,60.446 -344.489,60.446L-287.168,60.446C-284.248,60.446 -281.889,62.815 -281.889,65.725L-281.889,93.635C-281.889,100.046 -280.639,105.076 -278.119,108.716C-275.609,112.366 -271.579,114.185 -266.048,114.185C-256.248,114.185 -251.348,106.836 -251.348,92.126C-251.348,79.805 -253.918,70.595 -259.079,64.506C-264.229,58.406 -270.508,52.526 -277.928,46.876L-313.939,19.156C-325.258,10.355 -333.869,1.055 -339.768,-8.754C-345.678,-18.554 -348.639,-32.195 -348.639,-49.664C-348.639,-65.885 -344.768,-79.264 -337.039,-89.824C-329.309,-100.385 -319.069,-108.235 -306.309,-113.394C-293.548,-118.544 -279.748,-121.124 -264.918,-121.124C-210.119,-121.124 -182.708,-93.784 -182.708,-39.104C-182.708,-37.655 -183.298,-36.334 -184.258,-35.374C-185.218,-34.414 -186.539,-33.824 -187.989,-33.824L-247.199,-33.824C-250.109,-33.824 -252.479,-36.195 -252.479,-39.104L-252.479,-44.574C-252.479,-50.224 -253.449,-55.695 -255.399,-60.974C-257.348,-66.254 -261.149,-68.894 -266.809,-68.894C-276.359,-68.894 -281.139,-63.865 -281.139,-53.814C-281.139,-43.635 -277.109,-35.644 -269.069,-29.865L-227.208,0.676C-214.139,10.105 -203.168,21.296 -194.309,34.236C-185.449,47.185 -181.018,64.406 -181.018,85.906Z" style="fill:rgb(20,33,61);"/>
        </g>
    </g>
</svg>
