<?xml version="1.0" encoding="UTF-8" standalone="no"?>
<!DOCTYPE svg PUBLIC "-//W3C//DTD SVG 1.1//EN" "http://www.w3.org/Graphics/SVG/1.1/DTD/svg11.dtd">
<svg width="100%" height="100%" viewBox="0 0 367 470" version="1.1" xmlns="http://www.w3.org/2000/svg" xmlns:xlink="http://www.w3.org/1999/xlink" xml:space="preserve" xmlns:serif="http://www.serif.com/" style="fill-rule:evenodd;clip-rule:evenodd;stroke-linejoin:round;stroke-miterlimit:2;">
    <g id="A1" transform="matrix(0.191146,0,0,0.435185,0,0)">
        <rect x="0" y="0" width="1920" height="1080" style="fill:none;"/>
        <g transform="matrix(4.57481,0,0,2.00939,740.466,566.318)">
            <path d="M0,-11.879C10.339,-14.537 16.65,-23.308 14.396,-33.323C11.881,-44.506 1.785,-42.823 -7.429,-44.289C-4.4,-31.905 -10.332,-28.548 -20.644,-28.13C-25.35,-27.94 -30.712,-26.333 -34.323,-23.509C-36.4,-21.884 -35.572,-16.544 -36.052,-12.875C-32.813,-13.398 -29.261,-13.272 -26.433,-14.642C-24.058,-15.792 -22.527,-18.685 -19.425,-22.144C-17.062,-7.849 -8.251,-9.758 0,-11.879M63.025,-15.023C63.482,-9.029 63.362,-5.227 64.146,-1.62C65.269,3.55 67.413,8.502 68.482,13.679C71.162,26.654 72.884,39.865 76.301,52.631C77.364,56.602 82.307,61.654 86.056,62.199C89.858,62.751 96.348,59.407 98.234,55.918C104.859,43.668 110.606,30.845 115.515,17.798C118.929,8.724 114.815,4.956 104.585,4.613C98.297,4.402 91.367,4.215 85.959,1.532C78.499,-2.169 72.202,-8.215 63.025,-15.023M-9.62,87.917C-1.42,76.547 10.235,73.887 22.419,72.385C28.404,71.646 34.626,71.651 40.307,69.907C47.813,67.603 47.808,60.45 41.933,58.469C31.971,55.109 24.31,42.007 11.087,49.833C10.268,50.318 7.72,47.883 5.976,46.806C7.232,44.956 8.106,42.337 9.852,41.47C11.643,40.58 14.386,40.999 16.537,41.542C33.59,45.841 42.792,37.038 40.947,19.065C39.053,0.602 37.256,-17.95 37.079,-36.48C36.977,-47.21 46.61,-48.855 55.364,-49.708C64.271,-50.576 73.171,-51.515 79.86,-52.197C75.158,-59.46 71.569,-66.407 66.66,-72.245C59.941,-80.234 52.171,-87.334 44.944,-94.904C38.562,-101.589 32.65,-108.772 25.85,-114.989C22.493,-118.058 17.122,-121.859 13.488,-121.143C2.354,-118.947 -7.73,-114.063 -18.176,-108.68C-55.133,-89.634 -42.348,-54.03 -49.976,-25.338C-50.843,-22.076 -50.5,-18.501 -50.846,-15.084C-50.908,-14.464 -51.592,-13.908 -52.003,-13.333C-67.126,-28.44 -74.436,-83.21 -62.211,-95.433C-65.353,-97.985 -68.411,-100.47 -72.118,-103.481C-66.551,-115.514 -62.241,-128.628 -54.824,-139.651C-48.96,-148.365 -39.284,-154.516 -31.286,-161.789C-29.927,-163.025 -27.807,-163.903 -27.198,-165.414C-17.194,-190.247 5.108,-192.364 26.375,-191.412C46.609,-190.506 67.771,-187.543 86.47,-180.227C117.473,-168.097 140.629,-145.69 153.029,-113.659C155.867,-106.329 158.951,-99.021 162.723,-92.141C172.328,-74.617 166.68,-57.32 161.647,-40.482C154.828,-17.67 151.393,4.897 154.926,28.854C156.538,39.788 160.588,53.893 144.397,60.268C142.678,60.945 142.288,65.641 141.739,68.559C134.231,108.435 110.564,136.965 76.983,157.354C38.888,180.485 2.412,160.821 -18.199,136.953C-23.183,131.183 -22.743,130.792 -16.401,123.745C-9.586,129.649 -3.397,136.671 4.271,141.175C11.56,145.457 20.396,147.106 29.17,150.126C30.562,145.813 31.456,143.039 32.334,140.316C45.293,139.875 52.994,134.022 56.283,122.232C59.726,109.895 52.828,102.444 40.038,104.295C33.422,105.253 26.202,110.334 18.517,100.541C27.111,96.991 34.753,93.835 42.396,90.68L42.706,87.855C34.204,87.217 25.702,86.06 17.203,86.083C8.26,86.107 -0.68,87.259 -9.62,87.917" style="fill:rgb(20,33,61);fill-rule:nonzero;"/>
        </g>
    </g>
</svg>
