<?xml version="1.0" encoding="UTF-8" standalone="no"?><!DOCTYPE svg PUBLIC "-//W3C//DTD SVG 1.1//EN" "http://www.w3.org/Graphics/SVG/1.1/DTD/svg11.dtd"><svg width="100%" height="100%" viewBox="0 0 3251 711" version="1.1" xmlns="http://www.w3.org/2000/svg" xmlns:xlink="http://www.w3.org/1999/xlink" xml:space="preserve" xmlns:serif="http://www.serif.com/" style="fill-rule:evenodd;clip-rule:evenodd;stroke-linejoin:round;stroke-miterlimit:2;"><rect id="Mesa-de-trabajo4" serif:id="Mesa de trabajo4" x="0" y="0" width="3250.2" height="710.129" style="fill:none;"/><g><g><path d="M756.835,61.642l-0,180.755c-0,27.063 -0.279,44.464 -0.835,52.205c-0.557,7.74 -3.091,14.728 -7.601,20.965c-4.511,6.237 -10.636,10.552 -18.377,12.947c-7.74,2.394 -19.406,3.592 -34.998,3.592l-35.249,-0l0,-47.277c4.233,0.334 7.295,0.501 9.189,0.501c5.011,-0 8.965,-1.225 11.861,-3.675c2.895,-2.45 4.566,-5.457 5.011,-9.021c0.446,-3.564 0.668,-10.469 0.668,-20.715l0,-190.277l70.331,0Z" style="fill-rule:nonzero;"/><path d="M934.749,188.271l0,54.293c0,19.935 -1.002,34.552 -3.007,43.852c-2.004,9.299 -6.292,17.986 -12.863,26.061c-6.571,8.074 -15.007,14.032 -25.309,17.875c-10.302,3.842 -22.135,5.763 -35.499,5.763c-14.924,-0 -27.564,-1.643 -37.922,-4.928c-10.357,-3.286 -18.404,-8.242 -24.14,-14.868c-5.735,-6.627 -9.828,-14.645 -12.278,-24.056c-2.45,-9.411 -3.675,-23.527 -3.675,-42.349l-0,-56.799c-0,-20.603 2.227,-36.696 6.682,-48.279c4.455,-11.583 12.473,-20.882 24.056,-27.898c11.582,-7.017 26.395,-10.525 44.437,-10.525c15.146,0 28.149,2.255 39.007,6.766c10.859,4.51 19.24,10.385 25.142,17.624c5.903,7.239 9.94,14.701 12.112,22.386c2.171,7.684 3.257,19.378 3.257,35.082Zm-67.49,-16.706c-0,-11.36 -0.613,-18.515 -1.838,-21.467c-1.225,-2.951 -3.842,-4.427 -7.851,-4.427c-4.01,0 -6.683,1.476 -8.019,4.427c-1.337,2.952 -2.005,10.107 -2.005,21.467l0,100.066c0,10.469 0.668,17.291 2.005,20.465c1.336,3.174 3.954,4.761 7.851,4.761c4.01,-0 6.655,-1.448 7.936,-4.344c1.28,-2.895 1.921,-9.132 1.921,-18.71l-0,-102.238Z" style="fill-rule:nonzero;"/><path d="M1024.46,110.423l-2.673,29.067c9.801,-20.826 24.001,-31.852 42.6,-33.077l-0,78.015c-12.362,0 -21.439,1.671 -27.23,5.012c-5.792,3.341 -9.356,7.991 -10.692,13.949c-1.336,5.958 -2.005,19.685 -2.005,41.179l0,87.538l-67.49,-0l-0,-221.683l67.49,-0Z" style="fill-rule:nonzero;"/><path d="M1409.69,225.19l-87.37,-0l-0,47.945c-0,10.023 0.724,16.483 2.172,19.378c1.447,2.896 4.232,4.344 8.352,4.344c5.123,-0 8.548,-1.921 10.274,-5.764c1.727,-3.842 2.59,-11.276 2.59,-22.302l-0,-29.234l63.982,-0l-0,16.371c-0,13.699 -0.863,24.223 -2.589,31.574c-1.727,7.35 -5.764,15.202 -12.112,23.555c-6.348,8.352 -14.395,14.617 -24.139,18.793c-9.745,4.177 -21.968,6.265 -36.669,6.265c-14.256,-0 -26.841,-2.06 -37.755,-6.181c-10.914,-4.121 -19.406,-9.773 -25.476,-16.956c-6.07,-7.184 -10.274,-15.091 -12.613,-23.722c-2.338,-8.631 -3.508,-21.188 -3.508,-37.671l0,-64.651c0,-19.378 2.617,-34.664 7.852,-45.857c5.234,-11.192 13.81,-19.768 25.726,-25.726c11.917,-5.959 25.616,-8.938 41.096,-8.938c18.933,0 34.553,3.592 46.859,10.775c12.307,7.184 20.938,16.706 25.894,28.567c4.956,11.861 7.434,28.539 7.434,50.033l-0,29.402Zm-67.658,-36.084l0,-16.205c0,-11.471 -0.612,-18.877 -1.837,-22.218c-1.225,-3.341 -3.731,-5.012 -7.518,-5.012c-4.677,0 -7.573,1.42 -8.687,4.26c-1.113,2.84 -1.67,10.497 -1.67,22.97l-0,16.205l19.712,-0Z" style="fill-rule:nonzero;"/><path d="M1232.78,110.423l-0,170.731c-0,23.053 -0.529,37.949 -1.587,44.687c-1.058,6.738 -4.817,13.866 -11.276,21.383c-6.46,7.518 -15.453,13.253 -26.98,17.207c-11.527,3.954 -26.033,5.93 -43.518,5.93c-21.494,0 -38.757,-3.647 -51.787,-10.942c-13.031,-7.295 -19.769,-21.634 -20.214,-43.017l65.486,0c-0,9.801 3.564,14.701 10.691,14.701c5.123,0 8.52,-1.503 10.191,-4.51c1.67,-3.007 2.506,-9.3 2.506,-18.878l-0,-16.705c-5.792,5.234 -11.889,9.188 -18.293,11.861c-6.404,2.673 -13.114,4.009 -20.13,4.009c-12.14,0 -22.135,-2.45 -29.987,-7.35c-7.851,-4.901 -13.225,-11.332 -16.121,-19.295c-2.895,-7.963 -4.343,-19.295 -4.343,-33.996l-0,-80.521c-0,-21.049 3.787,-36.195 11.36,-45.439c7.573,-9.244 19.1,-13.866 34.58,-13.866c8.465,0 16.177,1.726 23.138,5.179c6.96,3.452 13.169,8.631 18.626,15.536l4.845,-16.705l62.813,-0Zm-67.658,58.803c0,-10.135 -0.584,-16.594 -1.754,-19.378c-1.169,-2.785 -3.759,-4.177 -7.768,-4.177c-3.898,0 -6.654,1.587 -8.269,4.761c-1.615,3.174 -2.422,9.439 -2.422,18.794l-0,74.507c-0,9.912 0.612,16.344 1.837,19.295c1.225,2.951 3.787,4.427 7.685,4.427c4.455,-0 7.35,-1.782 8.687,-5.346c1.336,-3.564 2.004,-11.638 2.004,-24.223l0,-68.66Z" style="fill-rule:nonzero;"/></g><g><path d="M1636.69,62.22l-52.323,176.056l0,99.874l-66.468,-0l-0,-99.874l-50.448,-176.056l65.957,-0c10.339,53.743 16.134,89.931 17.384,108.565c3.977,-29.428 10.624,-65.616 19.941,-108.565l65.957,-0Z" style="fill-rule:nonzero;"/><path d="M1802.86,229.073l-89.136,0l0,48.914c0,10.226 0.739,16.816 2.216,19.77c1.477,2.954 4.317,4.431 8.521,4.431c5.227,0 8.721,-1.96 10.482,-5.879c1.761,-3.92 2.642,-11.505 2.642,-22.753l-0,-29.826l65.275,0l0,16.703c0,13.975 -0.88,24.712 -2.641,32.211c-1.761,7.499 -5.88,15.51 -12.357,24.031c-6.476,8.522 -14.685,14.913 -24.627,19.174c-9.942,4.261 -22.412,6.391 -37.41,6.391c-14.544,0 -27.383,-2.102 -38.518,-6.306c-11.135,-4.204 -19.798,-9.97 -25.991,-17.299c-6.192,-7.328 -10.481,-15.396 -12.867,-24.201c-2.386,-8.806 -3.579,-21.617 -3.579,-38.433l-0,-65.957c-0,-19.77 2.67,-35.365 8.01,-46.784c5.34,-11.419 14.089,-20.167 26.247,-26.246c12.157,-6.079 26.132,-9.118 41.926,-9.118c19.316,-0 35.251,3.664 47.806,10.993c12.555,7.328 21.361,17.043 26.417,29.143c5.056,12.101 7.584,29.116 7.584,51.045l0,29.996Zm-69.025,-36.813l0,-16.532c0,-11.703 -0.625,-19.259 -1.874,-22.668c-1.25,-3.408 -3.807,-5.113 -7.67,-5.113c-4.772,0 -7.726,1.449 -8.862,4.346c-1.137,2.898 -1.705,10.709 -1.705,23.435l0,16.532l20.111,-0Z" style="fill-rule:nonzero;"/><path d="M1895.4,111.986l-1.193,19.941c6.136,-8.068 12.896,-14.089 20.281,-18.066c7.386,-3.977 15.453,-5.965 24.202,-5.965c10.68,-0 19.912,2.869 27.695,8.607c7.783,5.737 12.64,12.356 14.572,19.855c1.932,7.499 2.897,20.224 2.897,38.177l0,95.271c0,20.566 -1.221,35.195 -3.664,43.887c-2.443,8.692 -7.442,15.623 -14.998,20.792c-7.556,5.17 -16.674,7.755 -27.354,7.755c-8.522,0 -16.419,-1.988 -23.69,-5.965c-7.272,-3.977 -13.919,-9.885 -19.941,-17.725l0,51.811l-68.855,0l0,-258.375l70.048,0Zm19.6,65.787c-0,-13.976 -0.512,-22.44 -1.534,-25.395c-1.023,-2.954 -3.863,-4.431 -8.522,-4.431c-4.545,0 -7.47,1.705 -8.777,5.113c-1.307,3.409 -1.96,11.646 -1.96,24.713l0,93.738c0,13.634 0.682,22.156 2.045,25.564c1.364,3.409 4.318,5.113 8.863,5.113c4.431,0 7.186,-1.562 8.266,-4.686c1.079,-3.125 1.619,-10.709 1.619,-22.753l-0,-96.976Z" style="fill-rule:nonzero;"/><path d="M2162.47,229.073l-89.136,0l0,48.914c0,10.226 0.739,16.816 2.216,19.77c1.477,2.954 4.318,4.431 8.522,4.431c5.226,0 8.72,-1.96 10.481,-5.879c1.761,-3.92 2.642,-11.505 2.642,-22.753l-0,-29.826l65.275,0l0,16.703c0,13.975 -0.88,24.712 -2.641,32.211c-1.761,7.499 -5.88,15.51 -12.357,24.031c-6.476,8.522 -14.685,14.913 -24.627,19.174c-9.942,4.261 -22.412,6.391 -37.41,6.391c-14.544,0 -27.383,-2.102 -38.518,-6.306c-11.135,-4.204 -19.798,-9.97 -25.991,-17.299c-6.192,-7.328 -10.481,-15.396 -12.867,-24.201c-2.386,-8.806 -3.579,-21.617 -3.579,-38.433l-0,-65.957c-0,-19.77 2.67,-35.365 8.01,-46.784c5.34,-11.419 14.089,-20.167 26.247,-26.246c12.157,-6.079 26.133,-9.118 41.926,-9.118c19.316,-0 35.251,3.664 47.806,10.993c12.555,7.328 21.361,17.043 26.417,29.143c5.056,12.101 7.584,29.116 7.584,51.045l0,29.996Zm-69.025,-36.813l0,-16.532c0,-11.703 -0.625,-19.259 -1.874,-22.668c-1.25,-3.408 -3.807,-5.113 -7.67,-5.113c-4.772,0 -7.726,1.449 -8.862,4.346c-1.137,2.898 -1.705,10.709 -1.705,23.435l0,16.532l20.111,-0Z" style="fill-rule:nonzero;"/><path d="M2292.17,111.986l0,50.107l-50.788,130.722l50.788,-0l0,45.335l-117.427,-0l-0,-47.38l51.981,-133.449l-46.698,0l-0,-45.335l112.144,0Z" style="fill-rule:nonzero;"/><path d="M1789.18,61.642l-54.141,36.617l-33.406,0l28.963,-36.617l58.584,0Z" style="fill-rule:nonzero;"/></g><g><path d="M846.724,419.761l-0,42.396c-20.687,-17.307 -42.09,-25.96 -64.21,-25.96c-24.372,-0 -44.905,8.756 -61.597,26.267c-16.795,17.409 -25.192,38.71 -25.192,63.902c-0,24.885 8.397,45.878 25.192,62.98c16.794,17.102 37.378,25.653 61.751,25.653c12.596,0 23.298,-2.048 32.105,-6.144c4.915,-2.048 10.01,-4.813 15.284,-8.295c5.274,-3.482 10.829,-7.681 16.667,-12.596l-0,43.164c-20.482,11.572 -41.987,17.358 -64.517,17.358c-33.896,0 -62.826,-11.828 -86.79,-35.484c-23.86,-23.86 -35.791,-52.637 -35.791,-86.329c0,-30.21 9.985,-57.143 29.954,-80.799c24.578,-28.981 56.375,-43.471 95.392,-43.471c21.301,-0 41.885,5.786 61.752,17.358Z" style="fill-rule:nonzero;"/><path d="M878.214,568.302c-0,-21.608 7.731,-39.99 23.195,-55.146c15.463,-15.157 34.306,-22.735 56.528,-22.735c22.325,0 41.27,7.63 56.836,22.888c15.361,15.259 23.042,33.999 23.042,56.222c-0,22.427 -7.732,41.218 -23.195,56.375c-15.566,15.053 -34.665,22.58 -57.297,22.58c-22.427,0 -41.219,-7.68 -56.375,-23.041c-15.156,-15.156 -22.734,-34.204 -22.734,-57.143Zm35.33,0.614c-0,14.952 3.994,26.78 11.982,35.484c8.192,8.807 18.996,13.211 32.411,13.211c13.518,-0 24.322,-4.353 32.412,-13.057c8.09,-8.705 12.135,-20.328 12.135,-34.87c0,-14.541 -4.045,-26.165 -12.135,-34.869c-8.192,-8.807 -18.996,-13.211 -32.412,-13.211c-13.21,0 -23.912,4.404 -32.104,13.211c-8.193,8.807 -12.289,20.174 -12.289,34.101Z" style="fill-rule:nonzero;"/><path d="M1074.37,498.87l34.716,-0l-0,13.825c12.084,-11.982 25.704,-17.973 40.86,-17.973c17.409,0 30.978,5.479 40.707,16.437c8.397,9.319 12.596,24.526 12.596,45.622l0,91.705l-34.716,0l0,-83.564c0,-14.746 -2.048,-24.936 -6.144,-30.568c-3.994,-5.735 -11.265,-8.602 -21.813,-8.602c-11.47,-0 -19.611,3.789 -24.424,11.367c-4.711,7.476 -7.066,20.532 -7.066,39.171l-0,72.196l-34.716,0l-0,-149.616Z" style="fill-rule:nonzero;"/><path d="M1333.82,520.068l-28.572,15.208c-4.506,-9.217 -10.087,-13.825 -16.743,-13.825c-3.175,-0 -5.889,1.049 -8.142,3.149c-2.253,2.099 -3.379,4.787 -3.379,8.064c-0,5.735 6.656,11.419 19.969,17.051c18.331,7.885 30.671,15.156 37.02,21.813c6.35,6.656 9.524,15.617 9.524,26.881c0,14.44 -5.325,26.524 -15.975,36.252c-10.343,9.217 -22.837,13.825 -37.481,13.825c-25.09,0 -42.857,-12.237 -53.303,-36.712l29.493,-13.672c4.097,7.169 7.22,11.726 9.37,13.672c4.199,3.891 9.217,5.837 15.054,5.837c11.675,-0 17.512,-5.325 17.512,-15.976c-0,-6.144 -4.506,-11.879 -13.518,-17.204c-3.482,-1.741 -6.964,-3.431 -10.445,-5.069c-3.482,-1.639 -7.015,-3.328 -10.599,-5.069c-10.036,-4.916 -17.102,-9.831 -21.199,-14.747c-5.222,-6.247 -7.834,-14.286 -7.834,-24.117c0,-13.005 4.455,-23.758 13.364,-32.258c9.115,-8.5 20.174,-12.75 33.18,-12.75c19.15,0 33.385,9.883 42.704,29.647Z" style="fill-rule:nonzero;"/><path d="M1367.46,568.302c0,-21.608 7.732,-39.99 23.196,-55.146c15.463,-15.157 34.306,-22.735 56.528,-22.735c22.325,0 41.27,7.63 56.836,22.888c15.361,15.259 23.042,33.999 23.042,56.222c-0,22.427 -7.732,41.218 -23.196,56.375c-15.565,15.053 -34.664,22.58 -57.296,22.58c-22.427,0 -41.219,-7.68 -56.375,-23.041c-15.156,-15.156 -22.735,-34.204 -22.735,-57.143Zm35.331,0.614c-0,14.952 3.994,26.78 11.981,35.484c8.193,8.807 18.997,13.211 32.412,13.211c13.518,-0 24.322,-4.353 32.412,-13.057c8.09,-8.705 12.135,-20.328 12.135,-34.87c0,-14.541 -4.045,-26.165 -12.135,-34.869c-8.193,-8.807 -18.997,-13.211 -32.412,-13.211c-13.21,0 -23.912,4.404 -32.104,13.211c-8.193,8.807 -12.289,20.174 -12.289,34.101Z" style="fill-rule:nonzero;"/><path d="M1563.62,498.87l34.562,-0l0,13.364c6.349,-6.656 11.982,-11.214 16.897,-13.671c5.018,-2.56 10.958,-3.841 17.819,-3.841c9.114,0 18.638,2.97 28.572,8.91l-15.822,31.644c-6.554,-4.711 -12.955,-7.066 -19.202,-7.066c-18.842,-0 -28.264,14.234 -28.264,42.703l0,77.573l-34.562,0l-0,-149.616Z" style="fill-rule:nonzero;"/><path d="M1794.96,501.02l-0,45.93c-7.885,-9.626 -14.951,-16.232 -21.198,-19.816c-6.145,-3.686 -13.364,-5.53 -21.659,-5.53c-13.006,0 -23.81,4.557 -32.412,13.672c-8.602,9.114 -12.903,20.532 -12.903,34.255c-0,14.029 4.147,25.55 12.442,34.562c8.397,9.012 19.099,13.518 32.105,13.518c8.295,-0 15.617,-1.792 21.966,-5.377c6.144,-3.481 13.364,-10.24 21.659,-20.276l-0,45.622c-14.03,7.271 -28.06,10.906 -42.089,10.906c-23.144,0 -42.499,-7.475 -58.065,-22.427c-15.566,-15.054 -23.349,-33.743 -23.349,-56.067c0,-22.325 7.886,-41.168 23.656,-56.529c15.771,-15.361 35.126,-23.042 58.065,-23.042c14.747,0 28.674,3.533 41.782,10.599Z" style="fill-rule:nonzero;"/><path d="M1899.72,568.302c0,-21.608 7.732,-39.99 23.195,-55.146c15.464,-15.157 34.307,-22.735 56.529,-22.735c22.325,0 41.27,7.63 56.836,22.888c15.361,15.259 23.041,33.999 23.041,56.222c0,22.427 -7.731,41.218 -23.195,56.375c-15.566,15.053 -34.665,22.58 -57.297,22.58c-22.427,0 -41.218,-7.68 -56.375,-23.041c-15.156,-15.156 -22.734,-34.204 -22.734,-57.143Zm35.331,0.614c-0,14.952 3.993,26.78 11.981,35.484c8.193,8.807 18.997,13.211 32.412,13.211c13.518,-0 24.322,-4.353 32.412,-13.057c8.09,-8.705 12.135,-20.328 12.135,-34.87c-0,-14.541 -4.045,-26.165 -12.135,-34.869c-8.193,-8.807 -18.997,-13.211 -32.412,-13.211c-13.211,0 -23.912,4.404 -32.105,13.211c-8.192,8.807 -12.288,20.174 -12.288,34.101Z" style="fill-rule:nonzero;"/><path d="M1863.01,498.87l0,149.616l-34.562,0l-0,-149.616l34.562,-0Zm-39.785,-62.212c0,-6.042 2.202,-11.265 6.605,-15.668c4.404,-4.404 9.678,-6.606 15.822,-6.606c6.247,0 11.572,2.202 15.976,6.606c4.403,4.301 6.605,9.575 6.605,15.821c0,6.247 -2.202,11.572 -6.605,15.976c-4.301,4.403 -9.575,6.605 -15.822,6.605c-6.247,0 -11.572,-2.202 -15.976,-6.605c-4.403,-4.404 -6.605,-9.78 -6.605,-16.129Z" style="fill-rule:nonzero;"/><path d="M2263.41,422.188l-0,143.812c-0,17.179 -1.2,29.991 -3.599,38.436c-2.399,9.597 -6.478,17.707 -12.236,24.328c-11.229,13.148 -26.104,19.722 -44.626,19.722c-14.012,0 -27.112,-3.646 -39.3,-10.94l16.411,-28.647c8.157,5.47 15.787,8.205 22.889,8.205c9.981,0 16.89,-3.791 20.729,-11.372c4.031,-7.582 6.046,-20.826 6.046,-39.732l0,-143.812l33.686,0Z" style="fill-rule:nonzero;"/><path d="M2342.88,504.243l0,80.471c0,23.225 9.166,34.837 27.496,34.837c18.33,0 27.495,-11.612 27.495,-34.837l0,-80.471l32.39,-0l0,81.191c0,11.228 -1.391,20.921 -4.174,29.079c-2.687,7.294 -7.342,13.868 -13.964,19.722c-10.941,9.501 -24.856,14.251 -41.747,14.251c-16.795,0 -30.663,-4.75 -41.603,-14.251c-6.718,-5.854 -11.469,-12.428 -14.252,-19.722c-2.687,-6.526 -4.031,-16.219 -4.031,-29.079l0,-81.191l32.39,-0Z" style="fill-rule:nonzero;"/><path d="M2471.14,508.274l32.39,-0l-0,12.524c5.95,-6.238 11.228,-10.509 15.835,-12.812c4.703,-2.4 10.269,-3.599 16.699,-3.599c8.541,-0 17.466,2.783 26.776,8.349l-14.828,29.655c-6.142,-4.415 -12.14,-6.622 -17.994,-6.622c-17.659,0 -26.488,13.34 -26.488,40.02l-0,72.697l-32.39,0l-0,-140.212Z" style="fill-rule:nonzero;"/><path d="M2613.8,508.274l-0,140.212l-32.39,0l-0,-140.212l32.39,-0Zm34.549,-69.099l-47.793,47.505l-17.851,-10.94l36.421,-52.4l29.223,15.835Z" style="fill-rule:nonzero;"/><path d="M2758.19,401.315l32.534,-0l0,243.141l-32.534,-0l0,-14.684c-12.764,12.476 -27.207,18.714 -43.33,18.714c-19.194,0 -35.126,-7.005 -47.794,-21.017c-12.572,-14.3 -18.858,-32.15 -18.858,-53.552c0,-20.921 6.286,-38.388 18.858,-52.399c12.477,-14.108 28.168,-21.162 47.074,-21.162c16.411,0 31.094,6.718 44.05,20.154l0,-119.195Zm-76.872,172.602c-0,13.436 3.599,24.377 10.797,32.822c7.389,8.542 16.698,12.812 27.927,12.812c11.996,0 21.689,-4.126 29.079,-12.38c7.39,-8.541 11.085,-19.386 11.085,-32.534c-0,-13.148 -3.695,-23.992 -11.085,-32.534c-7.39,-8.349 -16.987,-12.524 -28.791,-12.524c-11.133,0 -20.442,4.223 -27.927,12.668c-7.39,8.542 -11.085,19.098 -11.085,31.67Z" style="fill-rule:nonzero;"/><path d="M2864,508.274l-0,140.212l-32.39,0l-0,-140.212l32.39,-0Zm-37.285,-58.302c0,-5.663 2.063,-10.557 6.19,-14.684c4.127,-4.127 9.069,-6.19 14.828,-6.19c5.854,0 10.844,2.063 14.971,6.19c4.127,4.031 6.19,8.973 6.19,14.828c0,5.854 -2.063,10.844 -6.19,14.971c-4.031,4.127 -8.973,6.19 -14.827,6.19c-5.855,0 -10.845,-2.063 -14.972,-6.19c-4.127,-4.127 -6.19,-9.165 -6.19,-15.115Z" style="fill-rule:nonzero;"/><path d="M3014.14,510.289l0,43.043c-7.389,-9.021 -14.011,-15.212 -19.866,-18.571c-5.758,-3.454 -12.524,-5.182 -20.297,-5.182c-12.189,0 -22.313,4.271 -30.375,12.812c-8.061,8.541 -12.092,19.242 -12.092,32.102c-0,13.148 3.887,23.945 11.66,32.39c7.87,8.446 17.899,12.668 30.087,12.668c7.773,0 14.635,-1.679 20.586,-5.038c5.758,-3.263 12.524,-9.597 20.297,-19.002l0,42.755c-13.148,6.813 -26.296,10.22 -39.444,10.22c-21.689,0 -39.827,-7.005 -54.415,-21.017c-14.587,-14.108 -21.881,-31.622 -21.881,-52.544c-0,-20.921 7.39,-38.58 22.169,-52.976c14.78,-14.395 32.918,-21.593 54.415,-21.593c13.82,0 26.872,3.311 39.156,9.933Z" style="fill-rule:nonzero;"/><path d="M3038.9,573.342c-0,-20.25 7.245,-37.477 21.737,-51.68c14.491,-14.204 32.15,-21.306 52.976,-21.306c20.921,0 38.676,7.15 53.263,21.449c14.396,14.3 21.593,31.863 21.593,52.688c0,21.018 -7.245,38.628 -21.737,52.832c-14.587,14.108 -32.486,21.161 -53.695,21.161c-21.018,0 -38.628,-7.197 -52.832,-21.593c-14.204,-14.204 -21.305,-32.054 -21.305,-53.551Zm33.109,0.575c0,14.012 3.743,25.097 11.229,33.254c7.678,8.254 17.802,12.38 30.375,12.38c12.668,0 22.793,-4.078 30.374,-12.236c7.582,-8.157 11.373,-19.05 11.373,-32.678c-0,-13.628 -3.791,-24.52 -11.373,-32.678c-7.677,-8.253 -17.802,-12.38 -30.374,-12.38c-12.381,0 -22.41,4.127 -30.087,12.38c-7.678,8.254 -11.517,18.906 -11.517,31.958Z" style="fill-rule:nonzero;"/></g><g><path d="M61.728,123.543l493.828,-0l-0,246.914c-0,-0.574 -492.841,-246.914 -493.828,-246.914Z" style="fill:#2b0378;"/><path d="M555.556,401.321c-0,136.275 -110.639,246.913 -246.914,246.913c-136.275,0 -246.914,-110.638 -246.914,-246.913l493.828,-0Z" style="fill:#2b0378;"/><rect x="61.728" y="61.815" width="493.827" height="30.864" style="fill:#2b0378;"/></g></g></svg>