<?xml version="1.0" encoding="UTF-8" standalone="no"?>
<!DOCTYPE svg PUBLIC "-//W3C//DTD SVG 1.1//EN" "http://www.w3.org/Graphics/SVG/1.1/DTD/svg11.dtd">
<svg width="100%" height="100%" viewBox="0 0 72 72" version="1.1" xmlns="http://www.w3.org/2000/svg" xmlns:xlink="http://www.w3.org/1999/xlink" xml:space="preserve" xmlns:serif="http://www.serif.com/" style="fill-rule:evenodd;clip-rule:evenodd;stroke-linejoin:round;stroke-miterlimit:2;">
    <g transform="matrix(0.212482,0,0,0.212482,6.05207,-54.7258)">
        <g transform="matrix(0.24186,0,0,0.24186,808.465,30.3256)">
            <path d="M-2461.67,1491.67C-2462.24,1488.87 -2462.92,1486.11 -2463.74,1483.38C-2464.57,1480.66 -2465.52,1477.97 -2466.62,1475.33C-2467.71,1472.69 -2468.92,1470.12 -2470.26,1467.6C-2471.61,1465.08 -2473.07,1462.63 -2474.65,1460.26C-2476.23,1457.88 -2477.93,1455.59 -2479.74,1453.39C-2481.55,1451.19 -2483.45,1449.06 -2485.47,1447.05C-2487.48,1445.02 -2489.59,1443.11 -2491.79,1441.29C-2494,1439.48 -2496.29,1437.78 -2498.65,1436.19C-2501.03,1434.6 -2503.46,1433.13 -2505.97,1431.78C-2508.49,1430.42 -2511.06,1429.2 -2513.7,1428.1C-2516.33,1426.99 -2519,1426.03 -2521.73,1425.19C-2524.47,1424.35 -2527.23,1423.65 -2530.02,1423.08C-2532.82,1422.51 -2535.63,1422.09 -2538.47,1421.79C-2541.3,1421.5 -2544.15,1421.36 -2547.01,1421.34L-2973.01,1421.34C-2975.87,1421.35 -2978.71,1421.5 -2981.55,1421.79C-2984.4,1422.09 -2987.2,1422.51 -2990,1423.08C-2992.8,1423.65 -2995.56,1424.35 -2998.29,1425.19C-3001.01,1426.02 -3003.69,1426.99 -3006.32,1428.1C-3008.96,1429.2 -3011.53,1430.41 -3014.05,1431.78C-3016.56,1433.13 -3018.99,1434.6 -3021.37,1436.19C-3023.73,1437.78 -3026.02,1439.48 -3028.23,1441.29C-3030.42,1443.11 -3032.53,1445.03 -3034.55,1447.05C-3036.56,1449.06 -3038.47,1451.19 -3040.28,1453.39C-3042.09,1455.59 -3043.79,1457.89 -3045.37,1460.26C-3046.95,1462.64 -3048.41,1465.08 -3049.76,1467.6C-3051.1,1470.12 -3052.32,1472.69 -3053.4,1475.33C-3054.5,1477.97 -3055.45,1480.66 -3056.28,1483.38C-3057.1,1486.12 -3057.79,1488.88 -3058.35,1491.67C-3058.9,1494.47 -3059.31,1497.29 -3059.59,1500.12C-3059.88,1502.97 -3060.01,1505.81 -3060.01,1508.67L-3060.01,1771.33C-3060.01,1774.19 -3059.88,1777.03 -3059.59,1779.88C-3059.31,1782.71 -3058.9,1785.53 -3058.35,1788.33C-3057.78,1791.13 -3057.1,1793.89 -3056.28,1796.62C-3055.45,1799.36 -3054.5,1802.03 -3053.4,1804.67C-3052.31,1807.31 -3051.1,1809.88 -3049.76,1812.4C-3048.41,1814.92 -3046.95,1817.37 -3045.37,1819.74C-3043.79,1822.12 -3042.09,1824.41 -3040.28,1826.61C-3038.47,1828.81 -3036.57,1830.94 -3034.55,1832.95C-3032.54,1834.98 -3030.43,1836.89 -3028.23,1838.71C-3026.02,1840.52 -3023.73,1842.22 -3021.37,1843.81C-3019.01,1845.4 -3016.56,1846.87 -3014.05,1848.22C-3011.53,1849.58 -3008.96,1850.8 -3006.32,1851.9C-3003.69,1853.01 -3001.02,1853.97 -2998.29,1854.81C-2995.55,1855.65 -2992.79,1856.35 -2990,1856.92C-2987.2,1857.49 -2984.39,1857.92 -2981.55,1858.21C-2978.72,1858.5 -2975.87,1858.64 -2973.01,1858.66L-2547.01,1858.66C-2544.15,1858.65 -2541.31,1858.5 -2538.47,1858.21C-2535.62,1857.92 -2532.82,1857.49 -2530.02,1856.92C-2527.22,1856.35 -2524.46,1855.65 -2521.73,1854.81C-2519.01,1853.98 -2516.33,1853.01 -2513.7,1851.9C-2511.06,1850.8 -2508.49,1849.59 -2505.97,1848.22C-2503.46,1846.87 -2501.03,1845.4 -2498.65,1843.81C-2496.29,1842.22 -2494,1840.52 -2491.79,1838.71C-2489.6,1836.89 -2487.49,1834.97 -2485.47,1832.95C-2483.46,1830.94 -2481.55,1828.81 -2479.74,1826.61C-2477.93,1824.41 -2476.23,1822.11 -2474.65,1819.74C-2473.07,1817.36 -2471.61,1814.92 -2470.26,1812.4C-2468.92,1809.88 -2467.7,1807.31 -2466.62,1804.67C-2465.52,1802.03 -2464.57,1799.35 -2463.74,1796.62C-2462.92,1793.88 -2462.23,1791.12 -2461.68,1788.33C-2461.11,1785.53 -2460.7,1782.71 -2460.43,1779.88C-2460.14,1777.03 -2460.01,1774.19 -2460.01,1771.33L-2460.01,1508.67C-2460.01,1505.81 -2460.14,1502.97 -2460.43,1500.12C-2460.71,1497.29 -2461.12,1494.47 -2461.67,1491.67ZM-2572.67,1479.66L-2599.66,1500.66L-2742,1613C-2743.28,1614 -2744.62,1614.89 -2746.04,1615.68C-2747.46,1616.45 -2748.95,1617.11 -2750.48,1617.65C-2752.01,1618.19 -2753.58,1618.58 -2755.17,1618.84C-2756.77,1619.12 -2758.39,1619.25 -2760,1619.25C-2761.61,1619.25 -2763.23,1619.12 -2764.83,1618.84C-2766.42,1618.57 -2767.99,1618.18 -2769.52,1617.65C-2771.05,1617.12 -2772.53,1616.46 -2773.96,1615.68C-2775.38,1614.9 -2776.72,1614 -2778,1613L-2915.33,1504.66L-2947,1479.66L-2572.66,1479.66L-2572.67,1479.66ZM-2518.01,1771.33C-2518.01,1773.23 -2518.19,1775.13 -2518.56,1776.98C-2518.93,1778.85 -2519.49,1780.67 -2520.21,1782.43C-2520.95,1784.18 -2521.84,1785.85 -2522.89,1787.43C-2523.95,1789.02 -2525.16,1790.48 -2526.51,1791.83C-2527.85,1793.17 -2529.32,1794.37 -2530.9,1795.43C-2532.48,1796.49 -2534.16,1797.38 -2535.92,1798.11C-2537.68,1798.85 -2539.49,1799.39 -2541.36,1799.76C-2543.23,1800.13 -2545.11,1800.33 -2547.01,1800.33L-2973.01,1800.33C-2974.91,1800.33 -2976.8,1800.14 -2978.66,1799.76C-2980.53,1799.39 -2982.34,1798.84 -2984.1,1798.11C-2985.86,1797.39 -2987.54,1796.49 -2989.12,1795.43C-2990.7,1794.37 -2992.17,1793.16 -2993.51,1791.83C-2994.86,1790.48 -2996.07,1789.02 -2997.13,1787.43C-2998.18,1785.85 -2999.07,1784.17 -2999.81,1782.43C-3000.53,1780.67 -3001.09,1778.85 -3001.46,1776.98C-3001.83,1775.12 -3002.01,1773.23 -3002.01,1771.33L-3002.01,1510.33L-2814.02,1658.66C-2806.35,1664.8 -2797.89,1669.49 -2788.63,1672.74C-2779.37,1676 -2769.83,1677.63 -2760.02,1677.66C-2750.21,1677.64 -2740.67,1676 -2731.41,1672.74C-2722.15,1669.48 -2713.69,1664.79 -2706.02,1658.66L-2518.03,1510.33L-2518.03,1771.33L-2518.01,1771.33Z" style="fill:white;fill-rule:nonzero;"/>
        </g>
        <g transform="matrix(0.24186,0,0,0.24186,808.465,30.3256)">
            <path d="M-2262.42,1591L-2262.37,1591.03C-2261.56,1599.17 -2260.96,1607.32 -2260.56,1615.49C-2260.16,1623.66 -2259.95,1631.84 -2259.95,1640.02C-2259.95,1648.2 -2260.15,1656.38 -2260.55,1664.55C-2260.95,1672.72 -2261.55,1680.88 -2262.36,1689.02C-2263.15,1697.15 -2264.15,1705.28 -2265.36,1713.37C-2266.56,1721.48 -2267.96,1729.53 -2269.56,1737.56C-2271.15,1745.57 -2272.95,1753.55 -2274.94,1761.5C-2276.93,1769.43 -2279.11,1777.31 -2281.49,1785.15C-2283.86,1792.97 -2286.43,1800.74 -2289.18,1808.44C-2291.94,1816.16 -2294.89,1823.79 -2298.02,1831.35C-2301.16,1838.91 -2304.47,1846.39 -2307.97,1853.79C-2311.46,1861.18 -2315.14,1868.49 -2319,1875.71C-2322.86,1882.92 -2326.88,1890.04 -2331.09,1897.06C-2335.3,1904.08 -2339.67,1910.99 -2344.22,1917.8C-2348.77,1924.6 -2353.48,1931.29 -2358.35,1937.86C-2363.24,1944.43 -2368.26,1950.88 -2373.46,1957.21C-2378.64,1963.53 -2383.98,1969.73 -2389.48,1975.79C-2394.98,1981.85 -2400.62,1987.77 -2406.41,1993.56C-2412.2,1999.35 -2418.12,2004.99 -2424.18,2010.49C-2430.25,2015.98 -2436.44,2021.33 -2442.76,2026.51C-2449.09,2031.71 -2455.54,2036.74 -2462.11,2041.62C-2468.68,2046.49 -2475.37,2051.2 -2482.17,2055.75C-2488.98,2060.3 -2495.89,2064.67 -2502.91,2068.88C-2509.92,2073.09 -2517.05,2077.11 -2524.26,2080.97C-2531.48,2084.83 -2538.79,2088.5 -2546.18,2092C-2553.59,2095.5 -2561.06,2098.82 -2568.62,2101.95C-2576.18,2105.09 -2583.81,2108.03 -2591.53,2110.79C-2599.23,2113.54 -2607,2116.1 -2614.82,2118.48C-2622.65,2120.86 -2630.54,2123.04 -2638.47,2125.03C-2646.41,2127.02 -2654.39,2128.82 -2662.41,2130.41C-2670.44,2132.02 -2678.5,2133.42 -2686.6,2134.61C-2694.69,2135.81 -2702.81,2136.81 -2710.95,2137.61C-2719.08,2138.42 -2727.25,2139.02 -2735.42,2139.42C-2743.59,2139.81 -2751.77,2140.02 -2759.95,2140.02C-2768.13,2140.02 -2776.31,2139.82 -2784.48,2139.42C-2792.65,2139.02 -2800.81,2138.42 -2808.95,2137.61C-2817.08,2136.82 -2825.21,2135.82 -2833.3,2134.61C-2841.4,2133.41 -2849.45,2132.01 -2857.48,2130.41C-2865.49,2128.82 -2873.47,2127.02 -2881.42,2125.03C-2889.35,2123.04 -2897.23,2120.86 -2905.07,2118.48C-2912.89,2116.11 -2920.66,2113.54 -2928.36,2110.79C-2936.08,2108.03 -2943.71,2105.08 -2951.27,2101.95C-2958.83,2098.81 -2966.31,2095.5 -2973.71,2092C-2981.1,2088.51 -2988.41,2084.83 -2995.63,2080.97C-3002.84,2077.11 -3009.96,2073.09 -3016.98,2068.88C-3024,2064.67 -3030.91,2060.3 -3037.72,2055.75C-3044.52,2051.2 -3051.21,2046.49 -3057.78,2041.62C-3064.35,2036.73 -3070.8,2031.71 -3077.13,2026.51C-3083.45,2021.33 -3089.65,2015.99 -3095.71,2010.49C-3101.77,2004.99 -3107.69,1999.35 -3113.48,1993.56C-3119.27,1987.77 -3124.91,1981.85 -3130.41,1975.79C-3135.9,1969.72 -3141.25,1963.53 -3146.43,1957.21C-3151.63,1950.88 -3156.66,1944.43 -3161.54,1937.86C-3166.41,1931.29 -3171.12,1924.6 -3175.67,1917.8C-3180.22,1910.99 -3184.59,1904.08 -3188.8,1897.06C-3193.01,1890.04 -3197.03,1882.92 -3200.89,1875.71C-3204.75,1868.49 -3208.42,1861.18 -3211.92,1853.79C-3215.42,1846.38 -3218.74,1838.91 -3221.87,1831.35C-3225.01,1823.79 -3227.95,1816.16 -3230.71,1808.44C-3233.46,1800.74 -3236.02,1792.97 -3238.4,1785.15C-3240.78,1777.32 -3242.96,1769.43 -3244.95,1761.5C-3246.94,1753.56 -3248.74,1745.58 -3250.33,1737.56C-3251.94,1729.53 -3253.34,1721.47 -3254.53,1713.37C-3255.73,1705.28 -3256.73,1697.16 -3257.53,1689.02C-3258.34,1680.89 -3258.95,1672.72 -3259.34,1664.55C-3259.73,1656.38 -3259.94,1648.2 -3259.94,1640.02C-3259.94,1631.84 -3259.74,1623.66 -3259.34,1615.49C-3258.94,1607.32 -3258.34,1599.16 -3257.53,1591.02C-3256.74,1582.89 -3255.74,1574.76 -3254.53,1566.67C-3253.33,1558.56 -3251.93,1550.51 -3250.33,1542.48C-3248.74,1534.47 -3246.94,1526.49 -3244.95,1518.54C-3242.96,1510.61 -3240.78,1502.73 -3238.4,1494.89C-3236.03,1487.07 -3233.46,1479.3 -3230.71,1471.6C-3227.95,1463.88 -3225,1456.25 -3221.87,1448.69C-3218.73,1441.13 -3215.42,1433.65 -3211.92,1426.25C-3208.43,1418.86 -3204.75,1411.55 -3200.89,1404.33C-3197.03,1397.12 -3193.01,1390 -3188.8,1382.98C-3184.59,1375.96 -3180.22,1369.05 -3175.67,1362.24C-3171.12,1355.44 -3166.41,1348.75 -3161.54,1342.18C-3156.65,1335.61 -3151.63,1329.16 -3146.43,1322.83C-3141.25,1316.51 -3135.91,1310.31 -3130.41,1304.25C-3124.91,1298.19 -3119.27,1292.27 -3113.48,1286.48C-3107.69,1280.69 -3101.77,1275.05 -3095.71,1269.55C-3089.64,1264.06 -3083.45,1258.71 -3077.13,1253.53C-3070.8,1248.33 -3064.35,1243.3 -3057.78,1238.42C-3051.21,1233.55 -3044.52,1228.84 -3037.72,1224.29C-3030.91,1219.74 -3024,1215.37 -3016.98,1211.16C-3009.97,1206.95 -3002.84,1202.93 -2995.63,1199.07C-2988.41,1195.21 -2981.1,1191.54 -2973.71,1188.04C-2966.3,1184.54 -2958.83,1181.22 -2951.27,1178.09C-2943.72,1174.95 -2936.08,1172.01 -2928.38,1169.25C-2920.67,1166.5 -2912.9,1163.94 -2905.08,1161.56C-2897.25,1159.18 -2889.36,1157 -2881.43,1155.01C-2873.5,1153.02 -2865.51,1151.22 -2857.49,1149.63C-2849.47,1148.02 -2841.41,1146.62 -2833.31,1145.43C-2825.22,1144.23 -2817.1,1143.23 -2808.96,1142.43C-2800.83,1141.62 -2792.66,1141.02 -2784.49,1140.62C-2776.32,1140.22 -2768.14,1140.02 -2759.96,1140.02C-2751.78,1140.02 -2743.6,1140.22 -2735.43,1140.63C-2727.26,1141.03 -2719.11,1141.63 -2710.97,1142.44C-2702.82,1143.24 -2694.71,1144.24 -2686.62,1145.45C-2678.52,1146.66 -2670.47,1148.06 -2662.44,1149.65C-2654.43,1151.25 -2646.45,1153.05 -2638.5,1155.04C-2630.57,1157.03 -2622.68,1159.22 -2614.86,1161.59C-2607.04,1163.96 -2599.26,1166.53 -2591.57,1169.29C-2583.87,1172.05 -2576.24,1175 -2568.68,1178.13C-2561.12,1181.27 -2553.64,1184.58 -2546.24,1188.08C-2538.85,1191.57 -2531.54,1195.25 -2524.32,1199.11C-2517.11,1202.96 -2509.99,1207 -2502.97,1211.21C-2495.96,1215.42 -2489.05,1219.79 -2482.25,1224.34C-2475.45,1228.89 -2468.76,1233.6 -2462.19,1238.47C-2455.62,1243.34 -2449.17,1248.38 -2442.84,1253.56C-2436.52,1258.75 -2430.32,1264.09 -2424.26,1269.59C-2418.21,1275.09 -2412.28,1280.72 -2406.49,1286.51C-2400.7,1292.3 -2395.07,1298.23 -2389.57,1304.28C-2384.08,1310.35 -2378.74,1316.54 -2373.54,1322.86C-2368.36,1329.19 -2363.32,1335.64 -2358.45,1342.21C-2353.58,1348.78 -2348.87,1355.47 -2344.32,1362.27C-2339.77,1369.06 -2335.4,1375.97 -2331.19,1382.99C-2326.99,1390.01 -2322.95,1397.13 -2319.09,1404.34C-2315.23,1411.56 -2311.56,1418.87 -2308.06,1426.26C-2304.56,1433.67 -2301.24,1441.14 -2298.11,1448.7C-2294.97,1456.25 -2292.03,1463.89 -2289.27,1471.59C-2286.51,1479.28 -2283.95,1487.06 -2281.57,1494.88C-2279.19,1502.7 -2277.01,1510.59 -2275.02,1518.52C-2273.03,1526.46 -2271.23,1534.44 -2269.63,1542.46C-2268.03,1550.49 -2266.64,1558.55 -2265.43,1566.65C-2264.23,1574.74 -2263.23,1582.85 -2262.42,1591ZM-2460,1771.33L-2460,1508.67C-2460,1505.81 -2460.13,1502.97 -2460.42,1500.12C-2460.7,1497.29 -2461.11,1494.47 -2461.66,1491.67C-2462.22,1488.88 -2462.91,1486.12 -2463.73,1483.38C-2464.56,1480.66 -2465.51,1477.97 -2466.61,1475.33C-2467.69,1472.69 -2468.91,1470.12 -2470.25,1467.6C-2471.6,1465.08 -2473.06,1462.64 -2474.64,1460.26C-2476.22,1457.89 -2477.92,1455.59 -2479.73,1453.39C-2481.54,1451.19 -2483.45,1449.06 -2485.46,1447.05C-2487.48,1445.03 -2489.59,1443.11 -2491.78,1441.29C-2493.99,1439.48 -2496.28,1437.78 -2498.64,1436.19C-2501.02,1434.6 -2503.45,1433.13 -2505.96,1431.78C-2508.48,1430.41 -2511.05,1429.2 -2513.69,1428.1C-2516.32,1426.99 -2519,1426.02 -2521.72,1425.19C-2524.45,1424.35 -2527.21,1423.65 -2530.01,1423.08C-2532.81,1422.51 -2535.61,1422.09 -2538.46,1421.79C-2541.3,1421.5 -2544.14,1421.35 -2547,1421.34L-2973,1421.34C-2975.86,1421.36 -2978.71,1421.5 -2981.54,1421.79C-2984.38,1422.09 -2987.19,1422.51 -2989.99,1423.08C-2992.78,1423.65 -2995.54,1424.35 -2998.28,1425.19C-3001.01,1426.03 -3003.68,1426.99 -3006.31,1428.1C-3008.95,1429.2 -3011.52,1430.42 -3014.04,1431.78C-3016.55,1433.13 -3018.98,1434.6 -3021.36,1436.19C-3023.72,1437.78 -3026.01,1439.48 -3028.22,1441.29C-3030.42,1443.11 -3032.53,1445.02 -3034.54,1447.05C-3036.56,1449.06 -3038.46,1451.19 -3040.27,1453.39C-3042.08,1455.59 -3043.78,1457.88 -3045.36,1460.26C-3046.94,1462.63 -3048.4,1465.08 -3049.75,1467.6C-3051.09,1470.12 -3052.3,1472.69 -3053.39,1475.33C-3054.49,1477.97 -3055.44,1480.66 -3056.27,1483.38C-3057.09,1486.11 -3057.77,1488.87 -3058.34,1491.67C-3058.89,1494.47 -3059.3,1497.29 -3059.58,1500.12C-3059.87,1502.97 -3060,1505.81 -3060,1508.67L-3060,1771.33C-3060,1774.19 -3059.87,1777.03 -3059.58,1779.88C-3059.3,1782.71 -3058.89,1785.53 -3058.34,1788.33C-3057.78,1791.12 -3057.09,1793.88 -3056.27,1796.62C-3055.44,1799.35 -3054.49,1802.03 -3053.39,1804.67C-3052.31,1807.31 -3051.09,1809.88 -3049.75,1812.4C-3048.4,1814.92 -3046.94,1817.36 -3045.36,1819.74C-3043.78,1822.11 -3042.08,1824.41 -3040.27,1826.61C-3038.46,1828.81 -3036.55,1830.94 -3034.54,1832.95C-3032.52,1834.97 -3030.41,1836.89 -3028.22,1838.71C-3026.01,1840.52 -3023.72,1842.22 -3021.36,1843.81C-3019,1845.4 -3016.55,1846.87 -3014.04,1848.22C-3011.52,1849.59 -3008.95,1850.8 -3006.31,1851.9C-3003.68,1853.01 -3001,1853.98 -2998.28,1854.81C-2995.55,1855.65 -2992.79,1856.35 -2989.99,1856.92C-2987.19,1857.49 -2984.39,1857.92 -2981.54,1858.21C-2978.7,1858.5 -2975.86,1858.65 -2973,1858.66L-2547,1858.66C-2544.14,1858.64 -2541.29,1858.5 -2538.46,1858.21C-2535.62,1857.92 -2532.81,1857.49 -2530.01,1856.92C-2527.22,1856.35 -2524.46,1855.65 -2521.72,1854.81C-2518.99,1853.97 -2516.32,1853.01 -2513.69,1851.9C-2511.05,1850.8 -2508.48,1849.58 -2505.96,1848.22C-2503.45,1846.87 -2501.02,1845.4 -2498.64,1843.81C-2496.28,1842.22 -2493.99,1840.52 -2491.78,1838.71C-2489.58,1836.89 -2487.47,1834.98 -2485.46,1832.95C-2483.44,1830.94 -2481.54,1828.81 -2479.73,1826.61C-2477.92,1824.41 -2476.22,1822.12 -2474.64,1819.74C-2473.06,1817.37 -2471.6,1814.92 -2470.25,1812.4C-2468.91,1809.88 -2467.7,1807.31 -2466.61,1804.67C-2465.51,1802.03 -2464.56,1799.36 -2463.73,1796.62C-2462.91,1793.89 -2462.22,1791.13 -2461.67,1788.33C-2461.11,1785.53 -2460.7,1782.71 -2460.42,1779.88C-2460.13,1777.03 -2460,1774.19 -2460,1771.33ZM-2778,1613.01L-2778.01,1613.01L-2915.34,1504.67L-2947.01,1479.67L-2572.67,1479.67L-2599.66,1500.67L-2742,1613.01C-2743.28,1614.01 -2744.62,1614.91 -2746.04,1615.69C-2747.47,1616.47 -2748.95,1617.13 -2750.48,1617.66C-2752.01,1618.19 -2753.58,1618.58 -2755.17,1618.85C-2756.77,1619.13 -2758.38,1619.26 -2760,1619.26C-2761.62,1619.26 -2763.23,1619.13 -2764.83,1618.85C-2766.42,1618.59 -2767.99,1618.19 -2769.52,1617.66C-2771.05,1617.12 -2772.54,1616.46 -2773.96,1615.69C-2775.38,1614.9 -2776.72,1614.01 -2778,1613.01ZM-2731.39,1672.74L-2731.37,1672.74C-2722.11,1669.49 -2713.65,1664.8 -2705.98,1658.66L-2517.99,1510.33L-2517.99,1771.33C-2517.99,1773.23 -2518.17,1775.12 -2518.54,1776.98C-2518.91,1778.85 -2519.47,1780.67 -2520.19,1782.43C-2520.93,1784.17 -2521.82,1785.85 -2522.87,1787.43C-2523.93,1789.02 -2525.14,1790.48 -2526.49,1791.83C-2527.83,1793.16 -2529.3,1794.37 -2530.88,1795.43C-2532.46,1796.49 -2534.14,1797.39 -2535.9,1798.11C-2537.66,1798.84 -2539.47,1799.39 -2541.34,1799.76C-2543.2,1800.14 -2545.09,1800.33 -2546.99,1800.33L-2972.99,1800.33C-2974.89,1800.33 -2976.77,1800.13 -2978.64,1799.76C-2980.51,1799.39 -2982.32,1798.85 -2984.08,1798.11C-2985.84,1797.38 -2987.52,1796.49 -2989.1,1795.43C-2990.68,1794.37 -2992.15,1793.17 -2993.49,1791.83C-2994.84,1790.48 -2996.05,1789.02 -2997.11,1787.43C-2998.16,1785.85 -2999.05,1784.18 -2999.79,1782.43C-3000.51,1780.67 -3001.07,1778.85 -3001.44,1776.98C-3001.81,1775.13 -3001.99,1773.23 -3001.99,1771.33L-3001.99,1510.33L-2814,1658.66C-2806.33,1664.79 -2797.87,1669.48 -2788.61,1672.74C-2779.35,1676 -2769.81,1677.64 -2760,1677.66C-2750.19,1677.63 -2740.65,1676 -2731.39,1672.74Z"/>
        </g>
    </g>
</svg>
