<?xml version="1.0" encoding="UTF-8" standalone="no"?>
<!DOCTYPE svg PUBLIC "-//W3C//DTD SVG 1.1//EN" "http://www.w3.org/Graphics/SVG/1.1/DTD/svg11.dtd">
<svg width="100%" height="100%" viewBox="0 0 72 72" version="1.1" xmlns="http://www.w3.org/2000/svg" xmlns:xlink="http://www.w3.org/1999/xlink" xml:space="preserve" xmlns:serif="http://www.serif.com/" style="fill-rule:evenodd;clip-rule:evenodd;stroke-linejoin:round;stroke-miterlimit:2;">
    <g transform="matrix(0.212482,0,0,0.212482,6.0549,1.80526)">
        <g transform="matrix(0.24186,0,0,0.24186,808.465,30.3256)">
            <circle cx="-2760" cy="540" r="500"/>
        </g>
        <g transform="matrix(0.24186,0,0,0.24186,808.465,30.3256)">
            <path d="M-2822.35,787.33L-2722.74,787.33L-2722.74,537.9L-2653.25,537.9L-2645.84,454.38L-2722.74,454.38L-2722.74,406.81C-2722.74,387.12 -2718.78,379.34 -2699.74,379.34L-2645.83,379.34L-2645.83,292.66L-2714.8,292.66C-2788.92,292.66 -2822.34,325.31 -2822.34,387.79L-2822.34,454.38L-2874.15,454.38L-2874.15,538.94L-2822.34,538.94L-2822.34,787.33L-2822.35,787.33Z" style="fill:rgb(255,239,239);fill-rule:nonzero;"/>
        </g>
    </g>
</svg>
