<?xml version="1.0" encoding="UTF-8" standalone="no"?>
<!DOCTYPE svg PUBLIC "-//W3C//DTD SVG 1.1//EN" "http://www.w3.org/Graphics/SVG/1.1/DTD/svg11.dtd">
<svg width="100%" height="100%" viewBox="0 0 72 72" version="1.1" xmlns="http://www.w3.org/2000/svg" xmlns:xlink="http://www.w3.org/1999/xlink" xml:space="preserve" xmlns:serif="http://www.serif.com/" style="fill-rule:evenodd;clip-rule:evenodd;stroke-linejoin:round;stroke-miterlimit:2;">
    <g transform="matrix(0.212482,0,0,0.212482,-50.4751,-54.7248)">
        <g transform="matrix(0.24186,0,0,0.24186,808.465,30.3256)">
            <circle cx="-1660" cy="1640" r="500"/>
        </g>
        <g transform="matrix(0.24186,0,0,0.24186,808.465,30.3256)">
            <path d="M-1660,1404.45C-1596.02,1404.45 -1588,1404.73 -1562.88,1405.87C-1537.81,1407.02 -1520.69,1411 -1505.71,1416.82C-1490.22,1422.84 -1477.09,1430.89 -1463.99,1443.99C-1450.9,1457.08 -1442.84,1470.22 -1436.82,1485.71C-1431,1500.69 -1427.02,1517.81 -1425.87,1542.88C-1424.73,1568.01 -1424.46,1576.03 -1424.46,1640C-1424.46,1703.97 -1424.73,1711.99 -1425.87,1737.12C-1427.02,1762.2 -1431,1779.32 -1436.82,1794.3C-1442.84,1809.79 -1450.9,1822.93 -1463.99,1836.02C-1477.08,1849.12 -1490.22,1857.17 -1505.71,1863.19C-1520.69,1869.01 -1537.81,1873 -1562.88,1874.14C-1588.01,1875.29 -1596.02,1875.56 -1660,1875.56C-1723.98,1875.56 -1732,1875.29 -1757.12,1874.14C-1782.2,1873 -1799.32,1869.01 -1814.3,1863.19C-1829.79,1857.17 -1842.92,1849.12 -1856.02,1836.02C-1869.12,1822.93 -1877.17,1809.79 -1883.19,1794.3C-1889.01,1779.31 -1893,1762.19 -1894.14,1737.12C-1895.29,1711.99 -1895.56,1703.98 -1895.56,1640C-1895.56,1576.02 -1895.29,1568 -1894.14,1542.88C-1893,1517.81 -1889.01,1500.69 -1883.19,1485.71C-1877.17,1470.22 -1869.12,1457.08 -1856.02,1443.99C-1842.93,1430.89 -1829.79,1422.84 -1814.3,1416.82C-1799.31,1411 -1782.19,1407.02 -1757.12,1405.87C-1731.99,1404.72 -1723.97,1404.45 -1660,1404.45ZM-1660,1446.89C-1722.89,1446.89 -1730.34,1447.13 -1755.18,1448.26C-1778.15,1449.3 -1790.62,1453.14 -1798.92,1456.37C-1809.92,1460.64 -1817.77,1465.74 -1826.01,1473.99C-1834.25,1482.23 -1839.36,1490.08 -1843.63,1501.07C-1846.85,1509.37 -1850.69,1521.84 -1851.74,1544.81C-1852.87,1569.65 -1853.11,1577.09 -1853.11,1639.99C-1853.11,1702.89 -1852.87,1710.33 -1851.74,1735.17C-1850.69,1758.14 -1846.85,1770.61 -1843.63,1778.91C-1839.36,1789.91 -1834.25,1797.75 -1826.01,1806C-1817.76,1814.24 -1809.92,1819.35 -1798.92,1823.62C-1790.62,1826.84 -1778.14,1830.68 -1755.18,1831.73C-1730.34,1832.86 -1722.9,1833.1 -1660,1833.1C-1597.1,1833.1 -1589.66,1832.86 -1564.82,1831.73C-1541.86,1830.69 -1529.38,1826.85 -1521.08,1823.62C-1510.09,1819.34 -1502.24,1814.24 -1494,1806C-1485.76,1797.75 -1480.65,1789.91 -1476.38,1778.91C-1473.16,1770.61 -1469.32,1758.14 -1468.27,1735.17C-1467.15,1710.33 -1466.9,1702.89 -1466.9,1639.99C-1466.9,1577.09 -1467.14,1569.65 -1468.27,1544.81C-1469.32,1521.85 -1473.15,1509.38 -1476.38,1501.07C-1480.65,1490.08 -1485.75,1482.23 -1494,1473.99C-1502.24,1465.74 -1510.08,1460.64 -1521.08,1456.37C-1529.38,1453.15 -1541.86,1449.31 -1564.82,1448.26C-1589.66,1447.13 -1597.1,1446.89 -1660,1446.89ZM-1660,1519.05C-1593.19,1519.05 -1539.04,1573.2 -1539.04,1640.01C-1539.04,1706.82 -1593.2,1760.97 -1660,1760.97C-1726.8,1760.97 -1780.96,1706.82 -1780.96,1640.01C-1780.96,1573.2 -1726.8,1519.05 -1660,1519.05ZM-1660,1718.52C-1616.63,1718.52 -1581.48,1683.37 -1581.48,1640C-1581.48,1596.63 -1616.63,1561.48 -1660,1561.48C-1703.37,1561.48 -1738.52,1596.63 -1738.52,1640C-1738.52,1683.37 -1703.36,1718.52 -1660,1718.52ZM-1506,1514.26C-1506,1529.87 -1518.66,1542.53 -1534.26,1542.53C-1549.86,1542.53 -1562.53,1529.87 -1562.53,1514.26C-1562.53,1498.65 -1549.87,1486 -1534.26,1486C-1518.65,1486 -1506,1498.66 -1506,1514.26Z" style="fill:white;"/>
        </g>
    </g>
</svg>
