<?xml version="1.0" encoding="UTF-8" standalone="no"?>
<!DOCTYPE svg PUBLIC "-//W3C//DTD SVG 1.1//EN" "http://www.w3.org/Graphics/SVG/1.1/DTD/svg11.dtd">
<svg width="100%" height="100%" viewBox="0 0 72 72" version="1.1" xmlns="http://www.w3.org/2000/svg" xmlns:xlink="http://www.w3.org/1999/xlink" xml:space="preserve" xmlns:serif="http://www.serif.com/" style="fill-rule:evenodd;clip-rule:evenodd;stroke-linejoin:round;stroke-miterlimit:2;">
    <g transform="matrix(0.0513909,0,0,0.0513909,8.2489,8.2489)">
        <circle cx="540" cy="540" r="500"/>
        <path d="M768.25,589.31L768.25,758.11L670.39,758.11L670.39,600.62C670.39,561.08 656.26,534.07 620.83,534.07C593.79,534.07 577.73,552.25 570.63,569.86C568.05,576.15 567.39,584.89 567.39,593.71L567.39,758.1L469.52,758.1C469.52,758.1 470.83,491.37 469.52,463.76L567.4,463.76L567.4,505.47C567.2,505.8 566.93,506.12 566.75,506.43L567.4,506.43L567.4,505.47C580.41,485.46 603.6,456.85 655.6,456.85C719.99,456.85 768.26,498.92 768.26,589.31L768.25,589.31ZM367.13,321.89C333.65,321.89 311.75,343.87 311.75,372.74C311.75,401.61 333.02,423.61 365.84,423.61L366.48,423.61C400.61,423.61 421.84,401 421.84,372.74C421.19,343.87 400.62,321.89 367.13,321.89ZM317.57,758.11L415.4,758.11L415.4,463.77L317.57,463.77L317.57,758.11Z" style="fill:rgb(239,240,240);fill-rule:nonzero;"/>
    </g>
</svg>
