<?xml version="1.0" encoding="UTF-8" standalone="no"?>
<!DOCTYPE svg PUBLIC "-//W3C//DTD SVG 1.1//EN" "http://www.w3.org/Graphics/SVG/1.1/DTD/svg11.dtd">
<svg width="100%" height="100%" viewBox="0 0 72 72" version="1.1" xmlns="http://www.w3.org/2000/svg" xmlns:xlink="http://www.w3.org/1999/xlink" xml:space="preserve" xmlns:serif="http://www.serif.com/" style="fill-rule:evenodd;clip-rule:evenodd;stroke-linejoin:round;stroke-miterlimit:2;">
    <g transform="matrix(0.212482,0,0,0.212482,-107.007,-54.7263)">
        <g transform="matrix(0.24186,0,0,0.24186,808.465,30.3256)">
            <path d="M-60.61,1615.47C-61.01,1607.3 -61.61,1599.15 -62.42,1591.01C-63.23,1582.86 -64.23,1574.75 -65.43,1566.66C-66.64,1558.56 -68.03,1550.5 -69.63,1542.47C-71.23,1534.45 -73.03,1526.47 -75.02,1518.53C-77.01,1510.6 -79.19,1502.71 -81.57,1494.89C-83.95,1487.07 -86.51,1479.29 -89.27,1471.6C-92.03,1463.9 -94.97,1456.26 -98.11,1448.71C-101.24,1441.15 -104.56,1433.68 -108.06,1426.27C-111.56,1418.88 -115.23,1411.57 -119.09,1404.35C-122.95,1397.14 -126.99,1390.02 -131.19,1383C-135.4,1375.98 -139.77,1369.07 -144.32,1362.28C-148.87,1355.48 -153.58,1348.79 -158.45,1342.22C-163.32,1335.65 -168.36,1329.2 -173.54,1322.87C-178.74,1316.55 -184.08,1310.36 -189.57,1304.29C-195.07,1298.24 -200.7,1292.31 -206.49,1286.52C-212.28,1280.73 -218.21,1275.1 -224.26,1269.6C-230.32,1264.1 -236.52,1258.76 -242.84,1253.57C-249.17,1248.39 -255.62,1243.35 -262.19,1238.48C-268.76,1233.61 -275.45,1228.9 -282.25,1224.35C-289.05,1219.8 -295.96,1215.43 -302.97,1211.22C-309.98,1207.01 -317.11,1202.97 -324.32,1199.12C-331.54,1195.26 -338.85,1191.58 -346.24,1188.09C-353.64,1184.59 -361.12,1181.28 -368.68,1178.14C-376.24,1175.01 -383.87,1172.06 -391.58,1169.3C-399.27,1166.54 -407.05,1163.97 -414.87,1161.6C-422.69,1159.22 -430.58,1157.04 -438.51,1155.05C-446.46,1153.06 -454.44,1151.26 -462.45,1149.66C-470.48,1148.07 -478.53,1146.67 -486.63,1145.46C-494.72,1144.25 -502.83,1143.25 -510.98,1142.45C-519.12,1141.64 -527.27,1141.04 -535.44,1140.64C-543.61,1140.23 -551.79,1140.03 -559.97,1140.03C-568.15,1140.03 -576.33,1140.23 -584.5,1140.63C-592.67,1141.03 -600.84,1141.63 -608.97,1142.44C-617.11,1143.24 -625.23,1144.24 -633.32,1145.44C-641.42,1146.63 -649.48,1148.03 -657.5,1149.64C-665.52,1151.23 -673.51,1153.03 -681.44,1155.02C-689.37,1157.01 -697.26,1159.19 -705.09,1161.57C-712.91,1163.95 -720.68,1166.51 -728.39,1169.26C-736.09,1172.02 -743.73,1174.96 -751.28,1178.1C-758.84,1181.23 -766.31,1184.55 -773.72,1188.05C-781.11,1191.55 -788.42,1195.22 -795.64,1199.08C-802.85,1202.94 -809.98,1206.96 -816.99,1211.17C-824.01,1215.38 -830.92,1219.75 -837.73,1224.3C-844.53,1228.85 -851.22,1233.56 -857.79,1238.43C-864.36,1243.31 -870.81,1248.34 -877.14,1253.54C-883.46,1258.72 -889.65,1264.07 -895.72,1269.56C-901.78,1275.06 -907.7,1280.7 -913.49,1286.49C-919.28,1292.28 -924.92,1298.2 -930.42,1304.26C-935.92,1310.32 -941.26,1316.52 -946.44,1322.84C-951.64,1329.17 -956.66,1335.62 -961.55,1342.19C-966.42,1348.76 -971.13,1355.45 -975.68,1362.25C-980.23,1369.06 -984.6,1375.97 -988.81,1382.99C-993.02,1390.01 -997.04,1397.13 -1000.9,1404.34C-1004.76,1411.56 -1008.44,1418.87 -1011.93,1426.26C-1015.43,1433.66 -1018.74,1441.14 -1021.88,1448.7C-1025.01,1456.26 -1027.96,1463.89 -1030.72,1471.61C-1033.47,1479.31 -1036.04,1487.08 -1038.41,1494.9C-1040.79,1502.74 -1042.97,1510.62 -1044.96,1518.55C-1046.95,1526.5 -1048.75,1534.48 -1050.34,1542.49C-1051.94,1550.52 -1053.34,1558.57 -1054.54,1566.68C-1055.75,1574.77 -1056.75,1582.9 -1057.54,1591.03C-1058.35,1599.17 -1058.95,1607.33 -1059.35,1615.5C-1059.75,1623.67 -1059.95,1631.85 -1059.95,1640.03C-1059.95,1648.21 -1059.74,1656.39 -1059.35,1664.56C-1058.95,1672.73 -1058.35,1680.9 -1057.54,1689.03C-1056.74,1697.17 -1055.74,1705.29 -1054.54,1713.38C-1053.35,1721.48 -1051.95,1729.54 -1050.34,1737.57C-1048.75,1745.59 -1046.95,1753.57 -1044.96,1761.51C-1042.97,1769.44 -1040.79,1777.33 -1038.41,1785.16C-1036.03,1792.98 -1033.47,1800.75 -1030.72,1808.45C-1027.96,1816.17 -1025.02,1823.8 -1021.88,1831.36C-1018.75,1838.92 -1015.43,1846.39 -1011.93,1853.8C-1008.43,1861.19 -1004.76,1868.5 -1000.9,1875.72C-997.04,1882.93 -993.02,1890.05 -988.81,1897.07C-984.6,1904.09 -980.23,1911 -975.68,1917.81C-971.13,1924.61 -966.42,1931.3 -961.55,1937.87C-956.67,1944.44 -951.64,1950.89 -946.44,1957.22C-941.26,1963.54 -935.91,1969.73 -930.42,1975.8C-924.92,1981.86 -919.28,1987.78 -913.49,1993.57C-907.7,1999.36 -901.78,2005 -895.72,2010.5C-889.66,2016 -883.46,2021.34 -877.14,2026.52C-870.81,2031.72 -864.36,2036.74 -857.79,2041.63C-851.22,2046.5 -844.53,2051.21 -837.73,2055.76C-830.92,2060.31 -824.01,2064.68 -816.99,2068.89C-809.97,2073.1 -802.85,2077.12 -795.64,2080.98C-788.42,2084.84 -781.11,2088.52 -773.72,2092.01C-766.32,2095.51 -758.84,2098.82 -751.28,2101.96C-743.72,2105.1 -736.09,2108.04 -728.37,2110.8C-720.67,2113.55 -712.9,2116.12 -705.08,2118.49C-697.24,2120.87 -689.36,2123.05 -681.43,2125.04C-673.48,2127.03 -665.5,2128.83 -657.49,2130.42C-649.46,2132.02 -641.41,2133.42 -633.31,2134.62C-625.22,2135.83 -617.09,2136.83 -608.96,2137.62C-600.82,2138.43 -592.66,2139.03 -584.49,2139.43C-576.32,2139.83 -568.14,2140.03 -559.96,2140.03C-551.78,2140.03 -543.6,2139.82 -535.43,2139.43C-527.26,2139.03 -519.09,2138.43 -510.96,2137.62C-502.82,2136.82 -494.7,2135.82 -486.61,2134.62C-478.51,2133.43 -470.45,2132.03 -462.43,2130.42C-454.41,2128.83 -446.43,2127.03 -438.49,2125.04C-430.56,2123.05 -422.67,2120.87 -414.84,2118.49C-407.02,2116.11 -399.25,2113.55 -391.55,2110.8C-383.83,2108.04 -376.2,2105.1 -368.64,2101.96C-361.08,2098.82 -353.61,2095.51 -346.2,2092.01C-338.81,2088.51 -331.5,2084.84 -324.28,2080.98C-317.07,2077.12 -309.95,2073.1 -302.93,2068.89C-295.91,2064.68 -289,2060.31 -282.19,2055.76C-275.39,2051.21 -268.7,2046.5 -262.13,2041.63C-255.56,2036.75 -249.11,2031.72 -242.78,2026.52C-236.46,2021.34 -230.27,2015.99 -224.2,2010.5C-218.14,2005 -212.22,1999.36 -206.43,1993.57C-200.64,1987.78 -195,1981.86 -189.5,1975.8C-184,1969.74 -178.66,1963.54 -173.48,1957.22C-168.28,1950.89 -163.26,1944.44 -158.37,1937.87C-153.5,1931.3 -148.79,1924.61 -144.24,1917.81C-139.69,1911 -135.32,1904.09 -131.11,1897.07C-126.9,1890.05 -122.88,1882.93 -119.02,1875.72C-115.16,1868.5 -111.48,1861.19 -107.99,1853.8C-104.49,1846.4 -101.18,1838.92 -98.04,1831.36C-94.91,1823.8 -91.96,1816.17 -89.2,1808.45C-86.45,1800.75 -83.88,1792.98 -81.51,1785.16C-79.13,1777.32 -76.95,1769.44 -74.96,1761.51C-72.97,1753.56 -71.17,1745.58 -69.58,1737.57C-67.98,1729.54 -66.58,1721.49 -65.38,1713.38C-64.17,1705.29 -63.17,1697.16 -62.38,1689.03C-61.57,1680.89 -60.97,1672.73 -60.57,1664.56C-60.17,1656.39 -59.97,1648.21 -59.97,1640.03C-59.97,1631.85 -60.18,1623.67 -60.58,1615.5L-60.61,1615.47ZM-371.77,1601.59C-410.25,1601.59 -445.92,1589.27 -475.03,1568.37L-475.03,1719.3C-475.03,1794.68 -536.31,1856 -611.63,1856C-640.73,1856 -667.73,1846.82 -689.92,1831.23C-725.16,1806.48 -748.24,1765.55 -748.24,1719.3C-748.24,1643.91 -686.96,1582.59 -611.64,1582.59C-605.39,1582.59 -599.26,1583.1 -593.23,1583.92L-593.23,1659.74C-599.06,1657.92 -605.22,1656.85 -611.64,1656.85C-646.03,1656.85 -674.02,1684.86 -674.02,1719.29C-674.02,1743.26 -660.43,1764.09 -640.57,1774.55C-631.91,1779.11 -622.08,1781.72 -611.63,1781.72C-578.03,1781.72 -550.61,1754.96 -549.36,1721.64L-549.24,1423.99L-475.03,1423.99C-475.03,1430.43 -474.4,1436.72 -473.27,1442.83C-468.03,1471.12 -451.25,1495.41 -427.99,1510.57C-411.79,1521.14 -392.48,1527.3 -371.76,1527.3L-371.76,1601.57L-371.77,1601.59Z" style="fill-rule:nonzero;"/>
        </g>
        <g transform="matrix(0.24186,0,0,0.24186,808.465,30.3256)">
            <path d="M-473.27,1442.84C-474.39,1436.73 -475.03,1430.43 -475.03,1424L-549.24,1424L-549.36,1721.65C-550.6,1754.98 -578.02,1781.73 -611.63,1781.73C-622.08,1781.73 -631.91,1779.12 -640.57,1774.56C-660.43,1764.1 -674.02,1743.27 -674.02,1719.3C-674.02,1684.87 -646.03,1656.86 -611.64,1656.86C-605.22,1656.86 -599.06,1657.92 -593.23,1659.75L-593.23,1583.93C-599.26,1583.11 -605.39,1582.6 -611.64,1582.6C-686.96,1582.6 -748.24,1643.92 -748.24,1719.31C-748.24,1765.56 -725.16,1806.49 -689.92,1831.24C-667.73,1846.83 -640.74,1856.01 -611.63,1856.01C-536.31,1856.01 -475.03,1794.69 -475.03,1719.31L-475.03,1568.38C-445.92,1589.28 -410.25,1601.6 -371.77,1601.6L-371.77,1527.33C-392.49,1527.33 -411.8,1521.16 -428,1510.6C-451.26,1495.43 -468.03,1471.15 -473.28,1442.86L-473.27,1442.84Z" style="fill:white;fill-rule:nonzero;"/>
        </g>
    </g>
</svg>
