<?xml version="1.0" encoding="UTF-8" standalone="no"?>
<!DOCTYPE svg PUBLIC "-//W3C//DTD SVG 1.1//EN" "http://www.w3.org/Graphics/SVG/1.1/DTD/svg11.dtd">
<svg width="100%" height="100%" viewBox="0 0 72 72" version="1.1" xmlns="http://www.w3.org/2000/svg" xmlns:xlink="http://www.w3.org/1999/xlink" xml:space="preserve" xmlns:serif="http://www.serif.com/" style="fill-rule:evenodd;clip-rule:evenodd;stroke-linejoin:round;stroke-miterlimit:2;">
    <g transform="matrix(0.212482,0,0,0.212482,-107.005,1.80526)">
        <g transform="matrix(0.24186,0,0,0.24186,808.465,30.3256)">
            <circle cx="-560" cy="540" r="500"/>
        </g>
        <g transform="matrix(0.24186,0,0,0.24186,808.465,30.3256)">
            <path d="M-321.74,527.64L-321.74,527.65C-321.63,529.667 -321.63,531.683 -321.63,533.7C-321.63,665.08 -428.88,771.55 -561.27,771.55C-603.23,771.55 -642.72,760.78 -677.05,741.93L-809.77,784.12L-766.57,656.56C-788.34,620.66 -800.9,578.7 -800.9,533.71C-800.9,530.24 -800.79,526.75 -800.68,523.28C-795.08,396.73 -691.64,295.87 -561.27,295.87C-430.903,295.87 -324.995,399.075 -321.74,527.64ZM-561.27,733.64L-561.26,733.63C-450.19,733.63 -359.77,644 -359.77,533.71C-359.77,528.43 -359.99,523.28 -360.44,518.11C-368.51,415.12 -456.8,333.78 -561.26,333.78C-665.72,333.78 -751.87,413.1 -761.75,514.3C-762.42,520.7 -762.76,527.2 -762.76,533.71C-762.76,577.47 -748.51,617.97 -724.39,650.95L-749.52,725.22L-672.11,700.54C-640.25,721.52 -602.22,733.64 -561.27,733.64ZM-451.43,581.73L-451.46,581.71C-445.63,584.62 -441.7,586.09 -440.24,588.44C-438.77,590.91 -438.77,602.58 -443.72,616.15C-448.54,629.83 -472.55,642.96 -483.32,643.86C-494.09,644.87 -494.09,652.61 -553.89,629.39C-613.58,605.94 -651.28,545.13 -654.19,541.32C-656.43,538.4 -669.22,521.46 -675.17,500.93C-676.97,494.53 -678.2,487.8 -678.2,481.07C-678.2,452.35 -663.05,438.22 -657.67,432.38C-652.28,426.55 -645.89,425.09 -641.96,425.09C-638.03,425.09 -634.22,425.65 -630.74,425.65C-627.26,425.65 -622.32,423.64 -617.5,435.3C-612.56,446.97 -600.78,475.69 -599.32,478.61C-597.86,481.53 -596.85,484.9 -598.87,488.82C-600.21,491.63 -601.22,493.65 -602.57,495.78C-603.24,496.68 -603.91,497.58 -604.7,498.59C-607.72,501.96 -610.87,506.11 -613.56,508.8C-616.47,511.72 -619.5,514.86 -616.14,520.69C-612.77,526.53 -600.88,545.6 -583.49,560.97C-561.05,580.95 -542.08,587 -536.25,589.92C-530.3,592.84 -526.93,592.39 -523.46,588.46C-520.1,584.65 -508.76,571.52 -504.84,565.69C-500.92,559.85 -496.99,560.75 -491.6,562.77C-486.21,564.68 -457.38,578.82 -451.43,581.73Z" style="fill:white;"/>
        </g>
    </g>
</svg>
