<?xml version="1.0" encoding="UTF-8" standalone="no"?>
<!DOCTYPE svg PUBLIC "-//W3C//DTD SVG 1.1//EN" "http://www.w3.org/Graphics/SVG/1.1/DTD/svg11.dtd">
<svg width="100%" height="100%" viewBox="0 0 72 72" version="1.1" xmlns="http://www.w3.org/2000/svg" xmlns:xlink="http://www.w3.org/1999/xlink" xml:space="preserve" xmlns:serif="http://www.serif.com/" style="fill-rule:evenodd;clip-rule:evenodd;stroke-linejoin:round;stroke-miterlimit:2;">
    <g transform="matrix(0.212482,0,0,0.212482,-50.4751,1.80526)">
        <g transform="matrix(0.24186,0,0,0.24186,808.465,30.3256)">
            <circle cx="-1660" cy="540" r="500"/>
        </g>
        <g transform="matrix(0.24186,0,0,0.24186,808.465,30.3256)">
            <path d="M-1522.88,374.03L-1797.13,374.03C-1850.94,374.03 -1894.56,417.65 -1894.56,471.46L-1894.56,608.55C-1894.56,662.36 -1850.94,705.98 -1797.13,705.98L-1522.88,705.98C-1469.07,705.98 -1425.45,662.36 -1425.45,608.55L-1425.45,471.46C-1425.45,417.65 -1469.07,374.03 -1522.88,374.03ZM-1588.76,546.67L-1717.03,607.85C-1720.45,609.48 -1724.4,606.99 -1724.4,603.2L-1724.4,477.02C-1724.4,473.18 -1720.35,470.69 -1716.92,472.43L-1588.65,537.43C-1584.84,539.36 -1584.9,544.83 -1588.76,546.67Z" style="fill:white;fill-rule:nonzero;"/>
        </g>
    </g>
</svg>
