<?xml version="1.0" standalone="no"?>
<!DOCTYPE svg PUBLIC "-//W3C//DTD SVG 1.1//EN" "http://www.w3.org/Graphics/SVG/1.1/DTD/svg11.dtd">
<svg xmlns:inkscape="http://www.inkscape.org/namespaces/inkscape" xmlns:sodipodi="http://sodipodi.sourceforge.net/DTD/sodipodi-0.dtd" xmlns="http://www.w3.org/2000/svg" xmlns:svg="http://www.w3.org/2000/svg" version="1.1" id="svg2" xml:space="preserve" width="2434.721435546875" height="479.173583984375" viewBox="0 0 2434.7214 479.17358" sodipodi:docname="7ca1e3092049f5c46a9a01315ea00712.ai"><defs id="defs6"><clipPath clipPathUnits="userSpaceOnUse" id="clipPath16"><path d="M 0,1080 H 1920 V 0 H 0 Z" id="path14"/></clipPath><clipPath clipPathUnits="userSpaceOnUse" id="clipPath28"><path d="M 0,1080 H 1920 V 0 H 0 Z" id="path26"/></clipPath><clipPath clipPathUnits="userSpaceOnUse" id="clipPath40"><path d="M 0,1080 H 1920 V 0 H 0 Z" id="path38"/></clipPath><clipPath clipPathUnits="userSpaceOnUse" id="clipPath52"><path d="M 0,1080 H 1920 V 0 H 0 Z" id="path50"/></clipPath><clipPath clipPathUnits="userSpaceOnUse" id="clipPath64"><path d="M 0,1080 H 1920 V 0 H 0 Z" id="path62"/></clipPath><clipPath clipPathUnits="userSpaceOnUse" id="clipPath76"><path d="M 0,1080 H 1920 V 0 H 0 Z" id="path74"/></clipPath><clipPath clipPathUnits="userSpaceOnUse" id="clipPath88"><path d="M 0,1080 H 1920 V 0 H 0 Z" id="path86"/></clipPath><clipPath clipPathUnits="userSpaceOnUse" id="clipPath100"><path d="M 0,1080 H 1920 V 0 H 0 Z" id="path98"/></clipPath><clipPath clipPathUnits="userSpaceOnUse" id="clipPath112"><path d="M 0,1080 H 1920 V 0 H 0 Z" id="path110"/></clipPath><clipPath clipPathUnits="userSpaceOnUse" id="clipPath124"><path d="M 0,1080 H 1920 V 0 H 0 Z" id="path122"/></clipPath><clipPath clipPathUnits="userSpaceOnUse" id="clipPath136"><path d="M 0,1080 H 1920 V 0 H 0 Z" id="path134"/></clipPath></defs><sodipodi:namedview id="namedview4" pagecolor="#ffffff" bordercolor="#666666" borderopacity="1.0" inkscape:pageshadow="2" inkscape:pageopacity="0.0" inkscape:pagecheckerboard="0"/><g id="g8" inkscape:groupmode="layer" inkscape:label="7ca1e3092049f5c46a9a01315ea00712" transform="matrix(1.3333333,0,0,-1.3333333,-62.640398,959.58638)"><g id="g10"><g id="g12" clip-path="url(#clipPath16)"><g id="g18" transform="translate(1705.0781,539.9248)"><path d="M 0,0 C 10.339,2.658 16.65,11.429 14.396,21.444 11.881,32.627 1.785,30.944 -7.429,32.41 -4.4,20.026 -10.332,16.669 -20.644,16.251 -25.35,16.061 -30.712,14.454 -34.323,11.63 -36.4,10.005 -35.572,4.665 -36.052,0.996 c 3.239,0.523 6.791,0.397 9.619,1.767 2.375,1.15 3.906,4.043 7.008,7.502 C -17.062,-4.03 -8.251,-2.121 0,0 m 63.025,3.144 c 0.457,-5.994 0.337,-9.796 1.121,-13.403 1.123,-5.17 3.267,-10.122 4.336,-15.299 2.68,-12.975 4.402,-26.186 7.819,-38.952 1.063,-3.971 6.006,-9.023 9.755,-9.568 3.802,-0.552 10.292,2.792 12.178,6.281 6.625,12.25 12.372,25.073 17.281,38.12 3.414,9.074 -0.7,12.842 -10.93,13.185 -6.288,0.211 -13.218,0.398 -18.626,3.081 -7.46,3.701 -13.757,9.747 -22.934,16.555 M -9.62,-99.796 c 8.2,11.37 19.855,14.03 32.039,15.532 5.985,0.739 12.207,0.734 17.888,2.478 7.506,2.304 7.501,9.457 1.626,11.438 -9.962,3.36 -17.623,16.462 -30.846,8.636 -0.819,-0.485 -3.367,1.95 -5.111,3.027 1.256,1.85 2.13,4.469 3.876,5.336 1.791,0.89 4.534,0.471 6.685,-0.072 17.053,-4.299 26.255,4.504 24.41,22.477 -1.894,18.463 -3.691,37.015 -3.868,55.545 -0.102,10.73 9.531,12.375 18.285,13.228 8.907,0.868 17.807,1.807 24.496,2.489 -4.702,7.263 -8.291,14.21 -13.2,20.048 C 59.941,68.355 52.171,75.455 44.944,83.025 38.562,89.71 32.65,96.893 25.85,103.11 c -3.357,3.069 -8.728,6.87 -12.362,6.154 -11.134,-2.196 -21.218,-7.08 -31.664,-12.463 -36.957,-19.046 -24.172,-54.65 -31.8,-83.342 -0.867,-3.262 -0.524,-6.837 -0.87,-10.254 -0.062,-0.62 -0.746,-1.176 -1.157,-1.751 -15.123,15.107 -22.433,69.877 -10.208,82.1 -3.142,2.552 -6.2,5.037 -9.907,8.048 5.567,12.033 9.877,25.147 17.294,36.17 5.864,8.714 15.54,14.865 23.538,22.138 1.359,1.236 3.479,2.114 4.088,3.625 10.004,24.833 32.306,26.95 53.573,25.998 20.234,-0.906 41.396,-3.869 60.095,-11.185 31.003,-12.13 54.159,-34.537 66.559,-66.568 2.838,-7.33 5.922,-14.638 9.694,-21.518 9.605,-17.524 3.957,-34.821 -1.076,-51.659 -6.819,-22.812 -10.254,-45.379 -6.721,-69.336 1.612,-10.934 5.662,-25.039 -10.529,-31.414 -1.719,-0.677 -2.109,-5.373 -2.658,-8.291 -7.508,-39.876 -31.175,-68.406 -64.756,-88.795 -38.095,-23.131 -74.571,-3.467 -95.182,20.401 -4.984,5.77 -4.544,6.161 1.798,13.208 6.815,-5.904 13.004,-12.926 20.672,-17.43 7.289,-4.282 16.125,-5.931 24.899,-8.951 1.392,4.313 2.286,7.087 3.164,9.81 12.959,0.441 20.66,6.294 23.949,18.084 3.443,12.337 -3.455,19.788 -16.245,17.937 -6.616,-0.958 -13.836,-6.039 -21.521,3.754 8.594,3.55 16.236,6.706 23.879,9.861 l 0.31,2.825 c -8.502,0.638 -17.004,1.795 -25.503,1.772 C 8.26,-97.986 -0.68,-99.138 -9.62,-99.796" style="fill:#14213d;fill-opacity:1;fill-rule:nonzero;stroke:none" id="path20"/></g></g></g><g id="g22"><g id="g24" clip-path="url(#clipPath28)"><g id="g30" transform="translate(146.5303,449.5)"><path d="m 0,0 c 0,-10.31 -0.75,-18.98 -2.26,-26.02 -1.511,-7.04 -5.85,-10.56 -13.011,-10.56 -7.159,0 -11.569,3.55 -13.199,10.65 -1.63,7.1 -2.45,15.74 -2.45,25.93 v 110.49 c 0,10.18 0.82,18.82 2.45,25.92 1.63,7.1 6.1,10.66 13.39,10.66 7.04,0 11.309,-3.49 12.82,-10.47 C -0.75,129.62 0,120.92 0,110.49 Z m 57.04,179.49 c -7.61,13.45 -20.65,20.18 -39.13,20.18 -13.7,0 -24.221,-2.92 -31.58,-8.77 -2.22,-1.77 -4.3,-3.75 -6.23,-5.94 -3.84,-4.34 -11.02,-1.55 -11.02,4.24 v 50.15 c 0,3.49 -2.83,6.33 -6.33,6.33 h -55.98 c -3.49,0 -6.32,-2.84 -6.32,-6.33 V -79.84 c 0,-3.5 2.83,-6.33 6.32,-6.33 h 55.98 c 1.75,0 3.33,0.71 4.479,1.85 1.141,1.15 1.851,2.73 1.851,4.48 0,5.85 7.26,8.55 11.1,4.13 1.72,-1.98 3.549,-3.74 5.49,-5.27 6.91,-5.47 15.9,-8.21 26.97,-8.21 12.82,0 23.339,3.37 31.58,10.09 8.23,6.72 14.33,15.9 18.29,27.53 3.95,11.62 5.94,24.67 5.94,39.12 V 126.7 c 0,21.75 -3.81,39.34 -11.41,52.79" style="fill:#14213d;fill-opacity:1;fill-rule:nonzero;stroke:none" id="path32"/></g></g></g><g id="g34"><g id="g36" clip-path="url(#clipPath40)"><g id="g42" transform="translate(357.1401,642.6099)"><path d="m 0,0 v -43.08 c 0,-3.47 -2.69,-6.35 -6.15,-6.58 -4.1,-0.27 -8.65,-0.79 -13.65,-1.57 -7.67,-1.2 -14.39,-2.83 -20.17,-4.9 -5.79,-2.08 -8.68,-4.37 -8.68,-6.88 v -209.67 c 0,-3.64 -2.95,-6.6 -6.59,-6.6 h -55.44 c -3.64,0 -6.6,2.96 -6.6,6.6 V -3.06 c 0,3.65 2.96,6.6 6.6,6.6 h 55.44 c 3.64,0 6.59,-2.95 6.59,-6.6 0,-3.99 3.27,-6.62 6.66,-6.62 1.67,0 3.36,0.64 4.71,2.06 1.82,1.94 3.81,3.71 5.98,5.32 6.64,4.93 14.65,7.88 24.03,8.87 C -3.39,6.98 0,3.91 0,0" style="fill:#14213d;fill-opacity:1;fill-rule:nonzero;stroke:none" id="path44"/></g></g></g><g id="g46"><g id="g48" clip-path="url(#clipPath52)"><g id="g54" transform="translate(440.8599,646.1499)"><path d="m 0,0 v -254.73 c 0,-15.51 -12.58,-28.09 -28.1,-28.09 h -11.31 c -15.52,0 -28.09,12.58 -28.09,28.09 V 0 Z" style="fill:#14213d;fill-opacity:1;fill-rule:nonzero;stroke:none" id="path56"/></g></g></g><g id="g58"><g id="g60" clip-path="url(#clipPath64)"><g id="g66" transform="translate(440.8599,691.5898)"><path d="m 0,0 c 0,-7.75 -3.14,-14.78 -8.23,-19.86 -5.09,-5.09 -12.11,-8.23 -19.87,-8.23 h -11.31 c -15.52,0 -28.09,12.58 -28.09,28.09 0,15.52 12.57,28.1 28.09,28.1 H -28.1 C -12.58,28.1 0,15.52 0,0" style="fill:#14213d;fill-opacity:1;fill-rule:nonzero;stroke:none" id="path68"/></g></g></g><g id="g70"><g id="g72" clip-path="url(#clipPath76)"><g id="g78" transform="translate(560.02,434.79)"><path d="m 0,0 c 0,-5.4 -1.01,-10.43 -3.02,-15.08 -2.01,-4.65 -5.78,-6.98 -11.31,-6.98 -10.06,0 -15.09,8.36 -15.09,25.08 v 36.39 c 0,11.06 2.58,19.45 7.73,25.17 4.09,4.53 9.47,8.45 16.16,11.76 C -2.98,77.6 0,75.7 0,72.87 Z m 57.79,182.7 c -6.98,10.44 -16.44,18.32 -28.38,23.67 -11.94,5.34 -25.45,8.01 -40.54,8.01 -28.78,0 -49.81,-5.88 -63.07,-17.63 C -87.46,185 -94.09,165.04 -94.09,136.89 v -5.42 c 0,-2.12 1.74,-3.82 3.85,-3.82 h 58.1 c 2.13,0 3.85,1.72 3.85,3.85 v 13.12 c 0,12.31 4.53,18.47 13.58,18.47 9.93,0 14.9,-7.6 14.9,-22.81 V 114 c 0,-1.65 -1.05,-3.12 -2.61,-3.65 L -41.67,96.91 C -56.13,92.01 -67.47,86.04 -75.7,79 -83.94,71.96 -89.75,62.94 -93.15,51.94 c -3.39,-10.99 -5.09,-25.1 -5.09,-42.32 0,-16.09 1.51,-30.49 4.53,-43.18 3.02,-12.7 8.64,-22.69 16.87,-29.98 8.24,-7.29 20.21,-10.94 35.92,-10.94 9.68,0 18.29,3.15 25.83,9.43 3.49,2.91 6.52,6.41 9.1,10.5 2.06,3.279 7.12,1.85 7.12,-2.03 v -11.03 c 0,-2.12 1.72,-3.85 3.85,-3.85 H 64.4 c 2.13,0 3.85,1.73 3.85,3.85 v 211.66 c 0,15.34 -3.49,28.22 -10.46,38.65" style="fill:#14213d;fill-opacity:1;fill-rule:nonzero;stroke:none" id="path80"/></g></g></g><g id="g82"><g id="g84" clip-path="url(#clipPath88)"><g id="g90" transform="translate(820.3999,581.48)"><path d="m 0,0 v -211.45 c 0,-3.7 -3,-6.7 -6.7,-6.7 h -53.15 c -3.71,0 -6.7,3 -6.7,6.7 V -6.98 c 0,5.53 -1.14,10.66 -3.4,15.37 -2.26,4.71 -6.16,7.07 -11.69,7.07 -5.15,0 -8.96,-1.79 -11.41,-5.37 -2.45,-3.58 -3.99,-8.05 -4.62,-13.39 -0.63,-5.34 -0.94,-10.65 -0.94,-15.93 v -192.22 c 0,-3.7 -3,-6.7 -6.7,-6.7 h -54.1 c -3.7,0 -6.7,3 -6.7,6.7 V 57.97 c 0,3.7 3,6.7 6.7,6.7 h 54.1 c 3.7,0 6.7,-3 6.7,-6.7 0,-4.09 3.35,-6.72 6.78,-6.72 1.85,0 3.73,0.77 5.11,2.49 0.69,0.87 1.41,1.72 2.16,2.54 6.85,7.61 16.37,11.41 28.56,11.41 19.61,0 33.85,-6.03 42.71,-18.1 C -4.43,37.52 0,20.99 0,0" style="fill:#14213d;fill-opacity:1;fill-rule:nonzero;stroke:none" id="path92"/></g></g></g><g id="g94"><g id="g96" clip-path="url(#clipPath100)"><g id="g102" transform="translate(944.4697,448.5498)"><path d="m 0,0 c 0,-13.319 -1.1,-22.56 -3.3,-27.71 -2.2,-5.16 -6.51,-7.729 -12.92,-7.729 -10.81,0 -16.21,11.809 -16.21,35.439 v 118.98 c 0,7.29 0.94,14.01 2.82,20.17 1.89,6.16 6.48,9.24 13.77,9.24 6.66,0 10.96,-3.24 12.91,-9.71 C -0.979,132.21 0,125.64 0,118.98 Z M 62.431,246.63 H 6.2 c -3.429,0 -6.2,-2.78 -6.2,-6.21 v -50.4 c 0,-5.68 -7.07,-8.42 -10.82,-4.14 -1.92,2.2 -4.01,4.19 -6.25,5.97 -7.35,5.85 -17.88,8.77 -31.58,8.77 -18.48,0 -31.579,-6.73 -39.31,-20.18 -7.729,-13.45 -11.6,-31.04 -11.6,-52.79 V 4.72 c 0,-12.949 0.6,-25.079 1.79,-36.39 1.2,-11.309 3.68,-21.18 7.45,-29.6 3.77,-8.43 9.49,-15.02 17.16,-19.799 7.67,-4.781 18.04,-7.171 31.11,-7.171 11.81,0 20.84,2.96 27.06,8.87 1.38,1.301 2.69,2.721 3.95,4.24 1.32,1.59 3.08,2.3 4.811,2.3 3.169,0 6.229,-2.399 6.229,-6.19 0,-3.419 2.771,-6.2 6.2,-6.2 h 56.231 c 3.42,0 6.199,2.781 6.199,6.2 v 319.44 c 0,3.43 -2.779,6.21 -6.199,6.21" style="fill:#14213d;fill-opacity:1;fill-rule:nonzero;stroke:none" id="path104"/></g></g></g><g id="g106"><g id="g108" clip-path="url(#clipPath112)"><g id="g114" transform="translate(1156.3896,642.6099)"><path d="m 0,0 v -43.08 c 0,-3.47 -2.68,-6.35 -6.149,-6.58 -4.09,-0.27 -8.641,-0.79 -13.641,-1.57 -7.67,-1.2 -14.399,-2.83 -20.18,-4.9 -5.78,-2.08 -8.67,-4.37 -8.67,-6.88 v -209.67 c 0,-3.64 -2.96,-6.6 -6.599,-6.6 h -55.431 c -3.649,0 -6.6,2.96 -6.6,6.6 V -3.06 c 0,3.65 2.951,6.6 6.6,6.6 h 55.431 c 3.639,0 6.599,-2.95 6.599,-6.6 0,-3.99 3.27,-6.62 6.661,-6.62 1.66,0 3.359,0.64 4.7,2.06 1.819,1.94 3.819,3.71 5.989,5.32 6.631,4.93 14.641,7.88 24.02,8.87 C -3.38,6.98 0,3.91 0,0" style="fill:#14213d;fill-opacity:1;fill-rule:nonzero;stroke:none" id="path116"/></g></g></g><g id="g118"><g id="g120" clip-path="url(#clipPath124)"><g id="g126" transform="translate(1237.8496,548.1099)"><path d="m 0,0 v 22.06 c 0,10.56 1.471,17.97 4.431,22.25 2.95,4.27 7.13,6.41 12.54,6.41 5.019,0 8.79,-2.24 11.309,-6.7 2.51,-4.46 3.771,-11.78 3.771,-21.96 V 0 c 0,-8.85 -7.181,-16.03 -16.03,-16.03 C 7.17,-16.03 0,-8.85 0,0 m 16.4,-49.59 h 66.51 c 8.74,0 15.861,7 16.021,15.74 0.159,8.85 0.239,20.32 0.239,34.41 v 20.56 c 0,53.29 -27.149,79.94 -81.449,79.94 C -8.68,101.06 -29.42,94.3 -44.5,80.79 -59.58,67.28 -67.13,47.38 -67.13,21.12 v -113.7 c 0,-19.99 2.58,-37.08 7.731,-51.28 5.16,-14.21 13.7,-25.08 25.649,-32.62 11.94,-7.55 27.961,-11.32 48.08,-11.32 21.36,0 38.24,3.62 50.62,10.85 12.38,7.22 21.181,17.97 26.401,32.241 2.599,7.129 4.559,15.119 5.86,23.969 1.31,8.84 1.959,18.55 1.959,29.1 0,8.86 -7.17,16.03 -16.02,16.03 H 48.08 c -8.85,0 -16.029,-7.17 -16.029,-16.03 v -11.12 c 0,-9.81 -0.881,-17.76 -2.641,-23.85 -1.76,-6.099 -6.16,-9.15 -13.199,-9.15 -4.9,0 -8.45,1.57 -10.65,4.72 -2.201,3.14 -3.621,7.13 -4.241,11.97 -0.63,4.84 -0.95,9.77 -0.95,14.8 v 38.65 c 0,8.85 7.181,16.03 16.03,16.03" style="fill:#14213d;fill-opacity:1;fill-rule:nonzero;stroke:none" id="path128"/></g></g></g><g id="g130"><g id="g132" clip-path="url(#clipPath136)"><g id="g138" transform="translate(1524.0605,442.1396)"><path d="m 0,0 c 0,-26.649 -7.57,-46.939 -22.721,-60.899 -15.15,-13.951 -35.91,-20.931 -62.309,-20.931 -55.811,0 -83.72,28.29 -83.72,84.851 v 17.16 c 0,2.91 2.369,5.279 5.279,5.279 h 57.321 c 2.92,0 5.279,-2.369 5.279,-5.279 v -27.91 c 0,-6.411 1.25,-11.441 3.77,-15.081 2.51,-3.65 6.54,-5.469 12.071,-5.469 9.8,0 14.7,7.349 14.7,22.059 0,12.321 -2.57,21.531 -7.731,27.62 -5.15,6.1 -11.429,11.98 -18.849,17.63 l -36.011,27.72 c -11.319,8.801 -19.93,18.101 -25.829,27.91 -5.91,9.8 -8.871,23.441 -8.871,40.91 0,16.221 3.871,29.6 11.6,40.16 7.73,10.561 17.97,18.411 30.73,23.57 12.761,5.15 26.561,7.73 41.391,7.73 54.799,0 82.21,-27.34 82.21,-82.02 0,-1.449 -0.59,-2.77 -1.55,-3.73 -0.96,-0.96 -2.281,-1.55 -3.731,-1.55 h -59.21 c -2.91,0 -5.28,2.371 -5.28,5.28 v 5.47 c 0,5.65 -0.97,11.121 -2.92,16.4 -1.949,5.28 -5.75,7.92 -11.41,7.92 -9.55,0 -14.33,-5.029 -14.33,-15.08 0,-10.179 4.03,-18.17 12.07,-23.949 L -46.19,85.23 C -33.121,75.801 -22.15,64.61 -13.291,51.67 -4.431,38.721 0,21.5 0,0" style="fill:#14213d;fill-opacity:1;fill-rule:nonzero;stroke:none" id="path140"/></g></g></g></g></svg>